<?xml version="1.0" encoding="us-ascii" standalone="no"?><svg xmlns="http://www.w3.org/2000/svg" xmlns:xlink="http://www.w3.org/1999/xlink" contentStyleType="text/css" height="599px" preserveAspectRatio="none" style="width:870px;height:599px;background:#FFFFFF;" version="1.1" viewBox="0 0 870 599" width="870px" zoomAndPan="magnify"><defs/><g><text fill="#000000" font-family="sans-serif" font-size="14" font-weight="bold" lengthAdjust="spacing" textLength="128" x="364" y="23.5352">Toolbar Overview</text><!--class ToolPlugin--><g id="elem_ToolPlugin"><rect codeLine="3" fill="#F1F1F1" height="126.4414" id="ToolPlugin" rx="2.5" ry="2.5" style="stroke:#181818;stroke-width:0.5;" width="396" x="363.5" y="153.4883"/><ellipse cx="520.25" cy="169.4883" fill="#B4A7E5" rx="11" ry="11" style="stroke:#181818;stroke-width:1.0;"/><path d="M516.6777,165.7534 L516.6777,163.5952 L524.0571,163.5952 L524.0571,165.7534 L521.5918,165.7534 L521.5918,173.8301 L524.0571,173.8301 L524.0571,175.9883 L516.6777,175.9883 L516.6777,173.8301 L519.1431,173.8301 L519.1431,165.7534 Z " fill="#000000"/><text fill="#000000" font-family="sans-serif" font-size="14" font-style="italic" lengthAdjust="spacing" textLength="74" x="540.75" y="174.7793">ToolPlugin</text><line style="stroke:#181818;stroke-width:0.5;" x1="364.5" x2="758.5" y1="185.4883" y2="185.4883"/><ellipse cx="374.5" cy="199.2324" fill="#84BE84" rx="3" ry="3" style="stroke:#038048;stroke-width:1.0;"/><text fill="#000000" font-family="sans-serif" font-size="14" lengthAdjust="spacing" textLength="78" x="383.5" y="203.0234">start(): void</text><ellipse cx="374.5" cy="236.209" fill="#84BE84" rx="3" ry="3" style="stroke:#038048;stroke-width:1.0;"/><text fill="#000000" font-family="sans-serif" font-size="14" lengthAdjust="spacing" text-decoration="underline" textLength="370" x="383.5" y="240">_registerShortcuts(keys: Map&lt;String, Function&gt;): void</text><ellipse cx="374.5" cy="252.6973" fill="#84BE84" rx="3" ry="3" style="stroke:#038048;stroke-width:1.0;"/><text fill="#000000" font-family="sans-serif" font-size="14" lengthAdjust="spacing" text-decoration="underline" textLength="213" x="383.5" y="256.4883">_registerMouseListeners(): void</text><ellipse cx="374.5" cy="269.1855" fill="#84BE84" rx="3" ry="3" style="stroke:#038048;stroke-width:1.0;"/><text fill="#000000" font-family="sans-serif" font-size="14" lengthAdjust="spacing" text-decoration="underline" textLength="192" x="383.5" y="272.9766">_registerKeyListeners(): void</text><line style="stroke:#181818;stroke-width:1.0;stroke-dasharray:1.0,2.0;" x1="364.5" x2="511.5" y1="218.2207" y2="218.2207"/><text fill="#000000" font-family="sans-serif" font-size="14" lengthAdjust="spacing" textLength="100" x="511.5" y="223.0117">Static Methods</text><line style="stroke:#181818;stroke-width:1.0;stroke-dasharray:1.0,2.0;" x1="611.5" x2="758.5" y1="218.2207" y2="218.2207"/></g><!--class Bean--><g id="elem_Bean"><rect fill="#F1F1F1" height="48" id="Bean" rx="2.5" ry="2.5" style="stroke:#181818;stroke-width:0.5;" width="65" x="529" y="44.4883"/><ellipse cx="544" cy="60.4883" fill="#B4A7E5" rx="11" ry="11" style="stroke:#181818;stroke-width:1.0;"/><path d="M540.4277,56.7534 L540.4277,54.5952 L547.8071,54.5952 L547.8071,56.7534 L545.3418,56.7534 L545.3418,64.8301 L547.8071,64.8301 L547.8071,66.9883 L540.4277,66.9883 L540.4277,64.8301 L542.8931,64.8301 L542.8931,56.7534 Z " fill="#000000"/><text fill="#000000" font-family="sans-serif" font-size="14" font-style="italic" lengthAdjust="spacing" textLength="33" x="558" y="65.7793">Bean</text><line style="stroke:#181818;stroke-width:0.5;" x1="530" x2="593" y1="76.4883" y2="76.4883"/><line style="stroke:#181818;stroke-width:0.5;" x1="530" x2="593" y1="84.4883" y2="84.4883"/></g><path d="M6,183.7383 L6,239.6699 A0,0 0 0 0 6,239.6699 L329,239.6699 A0,0 0 0 0 329,239.6699 L329,215.7041 L367.5,197.7324 L329,207.7041 L329,193.7383 L319,183.7383 L6,183.7383 A0,0 0 0 0 6,183.7383 " fill="#FEFFDD" style="stroke:#181818;stroke-width:0.5;"/><path d="M319,183.7383 L319,193.7383 L329,193.7383 L319,183.7383 " fill="#FEFFDD" style="stroke:#181818;stroke-width:0.5;"/><text fill="#000000" font-family="sans-serif" font-size="13" lengthAdjust="spacing" textLength="237" x="12" y="201.3066">delegates parts of the initialization to</text><text fill="#000000" font-family="sans-serif" font-size="13" lengthAdjust="spacing" textLength="274" x="12" y="216.6172">other methods so that pieces of the startup</text><text fill="#000000" font-family="sans-serif" font-size="13" lengthAdjust="spacing" textLength="302" x="12" y="231.9277">can be overridden without overriding everything</text><!--class PointerTool--><g id="elem_PointerTool"><rect codeLine="17" fill="#F1F1F1" height="126.4414" id="PointerTool" rx="2.5" ry="2.5" style="stroke:#181818;stroke-width:0.5;" width="389" x="72" y="356.9283"/><ellipse cx="222.25" cy="372.9283" fill="#ADD1B2" rx="11" ry="11" style="stroke:#181818;stroke-width:1.0;"/><path d="M224.7231,379.0713 Q224.1421,379.3702 223.5029,379.5196 Q222.8638,379.669 222.1582,379.669 Q219.6514,379.669 218.3315,378.0171 Q217.0117,376.3653 217.0117,373.2442 Q217.0117,370.1148 218.3315,368.4629 Q219.6514,366.8111 222.1582,366.8111 Q222.8638,366.8111 223.5112,366.9605 Q224.1587,367.1099 224.7231,367.4088 L224.7231,370.1314 Q224.0923,369.5504 223.4988,369.2806 Q222.9053,369.0108 222.2744,369.0108 Q220.9297,369.0108 220.2449,370.0775 Q219.5601,371.1441 219.5601,373.2442 Q219.5601,375.336 220.2449,376.4026 Q220.9297,377.4693 222.2744,377.4693 Q222.9053,377.4693 223.4988,377.1995 Q224.0923,376.9297 224.7231,376.3487 Z " fill="#000000"/><text fill="#000000" font-family="sans-serif" font-size="14" lengthAdjust="spacing" textLength="80" x="242.75" y="378.2193">PointerTool</text><line style="stroke:#181818;stroke-width:0.5;" x1="73" x2="460" y1="388.9283" y2="388.9283"/><ellipse cx="83" cy="402.6724" fill="#84BE84" rx="3" ry="3" style="stroke:#038048;stroke-width:1.0;"/><text fill="#000000" font-family="sans-serif" font-size="14" lengthAdjust="spacing" textLength="78" x="92" y="406.4634">start(): void</text><polygon fill="#FFFF44" points="83,434.649,87,438.649,83,442.649,79,438.649" style="stroke:#B38D22;stroke-width:1.0;"/><text fill="#000000" font-family="sans-serif" font-size="14" lengthAdjust="spacing" textLength="363" x="92" y="443.44">registerShortcuts(keys: Map&lt;String, Function&gt;): void</text><polygon fill="#FFFF44" points="83,451.1373,87,455.1373,83,459.1373,79,455.1373" style="stroke:#B38D22;stroke-width:1.0;"/><text fill="#000000" font-family="sans-serif" font-size="14" lengthAdjust="spacing" textLength="206" x="92" y="459.9283">registerMouseListeners(): void</text><polygon fill="#FFFF44" points="83,467.6255,87,471.6255,83,475.6255,79,471.6255" style="stroke:#B38D22;stroke-width:1.0;"/><text fill="#000000" font-family="sans-serif" font-size="14" lengthAdjust="spacing" textLength="185" x="92" y="476.4166">registerKeyListeners(): void</text><line style="stroke:#181818;stroke-width:1.0;stroke-dasharray:1.0,2.0;" x1="73" x2="212.5" y1="421.6607" y2="421.6607"/><text fill="#000000" font-family="sans-serif" font-size="14" lengthAdjust="spacing" textLength="108" x="212.5" y="426.4517">Implementation</text><line style="stroke:#181818;stroke-width:1.0;stroke-dasharray:1.0,2.0;" x1="320.5" x2="460" y1="421.6607" y2="421.6607"/></g><!--class MeasuringTool--><g id="elem_MeasuringTool"><rect codeLine="25" fill="#F1F1F1" height="48" id="MeasuringTool" rx="2.5" ry="2.5" style="stroke:#181818;stroke-width:0.5;" width="135" x="199" y="544.3683"/><ellipse cx="214" cy="560.3683" fill="#ADD1B2" rx="11" ry="11" style="stroke:#181818;stroke-width:1.0;"/><path d="M216.4731,566.5113 Q215.8921,566.8102 215.2529,566.9596 Q214.6138,567.109 213.9082,567.109 Q211.4014,567.109 210.0815,565.4571 Q208.7617,563.8053 208.7617,560.6842 Q208.7617,557.5548 210.0815,555.9029 Q211.4014,554.2511 213.9082,554.2511 Q214.6138,554.2511 215.2612,554.4005 Q215.9087,554.5499 216.4731,554.8488 L216.4731,557.5714 Q215.8423,556.9904 215.2488,556.7206 Q214.6553,556.4508 214.0244,556.4508 Q212.6797,556.4508 211.9949,557.5175 Q211.3101,558.5841 211.3101,560.6842 Q211.3101,562.776 211.9949,563.8426 Q212.6797,564.9093 214.0244,564.9093 Q214.6553,564.9093 215.2488,564.6395 Q215.8423,564.3697 216.4731,563.7887 Z " fill="#000000"/><text fill="#000000" font-family="sans-serif" font-size="14" lengthAdjust="spacing" textLength="103" x="228" y="565.6593">MeasuringTool</text><line style="stroke:#181818;stroke-width:0.5;" x1="200" x2="333" y1="576.3683" y2="576.3683"/><line style="stroke:#181818;stroke-width:0.5;" x1="200" x2="333" y1="584.3683" y2="584.3683"/></g><!--class MapToolHook--><g id="elem_MapToolHook"><rect codeLine="28" fill="#F1F1F1" height="80.9766" id="MapToolHook" rx="2.5" ry="2.5" style="stroke:#181818;stroke-width:0.5;" width="367" x="496" y="379.6583"/><ellipse cx="627.25" cy="395.6583" fill="#B4A7E5" rx="11" ry="11" style="stroke:#181818;stroke-width:1.0;"/><path d="M623.6777,391.9234 L623.6777,389.7652 L631.0571,389.7652 L631.0571,391.9234 L628.5918,391.9234 L628.5918,400.0001 L631.0571,400.0001 L631.0571,402.1583 L623.6777,402.1583 L623.6777,400.0001 L626.1431,400.0001 L626.1431,391.9234 Z " fill="#000000"/><text fill="#000000" font-family="sans-serif" font-size="14" font-style="italic" lengthAdjust="spacing" textLength="96" x="647.75" y="400.9493">MapToolHook</text><line style="stroke:#181818;stroke-width:0.5;" x1="497" x2="862" y1="411.6583" y2="411.6583"/><line style="stroke:#181818;stroke-width:0.5;" x1="497" x2="862" y1="419.6583" y2="419.6583"/><ellipse cx="507" cy="433.4024" fill="#84BE84" rx="3" ry="3" style="stroke:#038048;stroke-width:1.0;"/><text fill="#000000" font-family="sans-serif" font-size="14" lengthAdjust="spacing" textLength="193" x="516" y="437.1934">getInstance(): MapToolHook</text><ellipse cx="507" cy="449.8907" fill="#84BE84" rx="3" ry="3" style="stroke:#038048;stroke-width:1.0;"/><text fill="#000000" font-family="sans-serif" font-size="14" lengthAdjust="spacing" textLength="341" x="516" y="453.6817">addEventListener(tool: ToolPlugin, ev: Event): void</text></g><!--reverse link Bean to ToolPlugin--><g id="link_Bean_ToolPlugin"><path d="M561.5,110.9783 C561.5,127.2883 561.5,131.8283 561.5,153.1483 " fill="none" id="Bean-backto-ToolPlugin" style="stroke:#181818;stroke-width:1.0;"/><polygon fill="none" points="561.5,92.9783,555.5,110.9783,567.5,110.9783,561.5,92.9783" style="stroke:#181818;stroke-width:1.0;"/></g><!--reverse link ToolPlugin to PointerTool--><g id="link_ToolPlugin_PointerTool"><path d="M454.9141,290.4874 C419.3941,314.7374 393.68,332.2983 358.17,356.5483 " fill="none" id="ToolPlugin-backto-PointerTool" style="stroke:#181818;stroke-width:1.0;stroke-dasharray:7.0,7.0;"/><polygon fill="none" points="469.78,280.3383,451.5311,285.5321,458.2972,295.4427,469.78,280.3383" style="stroke:#181818;stroke-width:1.0;"/></g><!--reverse link PointerTool to MeasuringTool--><g id="link_PointerTool_MeasuringTool"><path d="M266.5,501.5783 C266.5,523.0083 266.5,527.6783 266.5,544.0283 " fill="none" id="PointerTool-backto-MeasuringTool" style="stroke:#181818;stroke-width:1.0;"/><polygon fill="none" points="266.5,483.5783,260.5,501.5783,272.5,501.5783,266.5,483.5783" style="stroke:#181818;stroke-width:1.0;"/></g><!--link ToolPlugin to MapToolHook--><g id="link_ToolPlugin_MapToolHook"><path codeLine="33" d="M598.19,280.3383 C617.13,312.6783 639.67,351.1583 656.21,379.3983 " fill="none" id="ToolPlugin-MapToolHook" style="stroke:#181818;stroke-width:1.0;"/><text fill="#000000" font-family="sans-serif" font-size="13" lengthAdjust="spacing" textLength="29" x="624.5" y="323.4966">uses</text></g><!--SRC=[dLB1JiCm3BtdAwpjKiJM3wWG1oGG4rHC6dUKjLvhhKkgnEqOq_uTfwLG1094JfRzRB_d5oQk42QFrbPhxU2XHTSIxYTAaM5q6vqXXEAoQWeoWC-C9lTmXTh0KO6ySy_QSNIMG6ifxr9nl6BDb46ANDhSnt6FXAFlyYTuSbYGbmMhqZhE6lRH5Wy-WLJN5ojsP8ePt3GcOxBcSZpxko6fRJpUXz2Wyz5ly3iyV0MVb3AM4IhSCDZDI7IIT0fbN8uL5fhHGoq97s1S8f0X9btHYmviWQr0hHGSx7hzuAq0DKDDcE5xNpUsgGMToJNN25QkxoZFqS2UfBFX8INt09JmmAM4IZo0m5QfhDBUmz9sRWNEGBkwmXqQuJSoxWUl5aD3H__Dg-c_3Ph-mPNfRrRqibBKlWchEc73tnkBFGRmnqyLSY5zQ-rsK5mWBup8DXc61ID4NzTvVjsA-856n59EHgURoU4Jw30ZWgFJpkUVzYOWihrw1G00]--></g></svg>