<?xml version="1.0" encoding="us-ascii" standalone="no"?><svg xmlns="http://www.w3.org/2000/svg" xmlns:xlink="http://www.w3.org/1999/xlink" contentStyleType="text/css" height="714px" preserveAspectRatio="none" style="width:1077px;height:714px;background:#FFFFFF;" version="1.1" viewBox="0 0 1077 714" width="1077px" zoomAndPan="magnify"><defs/><g><text fill="#000000" font-family="sans-serif" font-size="14" font-weight="bold" lengthAdjust="spacing" textLength="135" x="464" y="23.5352">Toolbar - Drawing</text><!--cluster Utils--><g id="cluster_Utils"><path d="M743.5,424.4883 L778.5,424.4883 A3.75,3.75 0 0 1 781,426.9883 L788,446.9766 L1067.5,446.9766 A2.5,2.5 0 0 1 1070,449.4766 L1070,705.4483 A2.5,2.5 0 0 1 1067.5,707.9483 L743.5,707.9483 A2.5,2.5 0 0 1 741,705.4483 L741,426.9883 A2.5,2.5 0 0 1 743.5,424.4883 " fill="none" style="stroke:#000000;stroke-width:1.5;"/><line style="stroke:#000000;stroke-width:1.5;" x1="741" x2="788" y1="446.9766" y2="446.9766"/><text fill="#000000" font-family="sans-serif" font-size="14" font-weight="bold" lengthAdjust="spacing" textLength="34" x="745" y="440.0234">Utils</text></g><!--cluster Drawing--><g id="cluster_Drawing"><path d="M8.5,139.4883 L69.5,139.4883 A3.75,3.75 0 0 1 72,141.9883 L79,161.9766 L714.5,161.9766 A2.5,2.5 0 0 1 717,164.4766 L717,561.4683 A2.5,2.5 0 0 1 714.5,563.9683 L8.5,563.9683 A2.5,2.5 0 0 1 6,561.4683 L6,141.9883 A2.5,2.5 0 0 1 8.5,139.4883 " fill="none" style="stroke:#000000;stroke-width:1.5;"/><line style="stroke:#000000;stroke-width:1.5;" x1="6" x2="79" y1="161.9766" y2="161.9766"/><text fill="#000000" font-family="sans-serif" font-size="14" font-weight="bold" lengthAdjust="spacing" textLength="60" x="10" y="155.0234">Drawing</text></g><!--cluster Implementation--><g id="cluster_Implementation"><path d="M116.5,440.9683 L290.5,440.9683 A3.75,3.75 0 0 1 293,443.4683 L300,463.4566 L690.5,463.4566 A2.5,2.5 0 0 1 693,465.9566 L693,537.4683 A2.5,2.5 0 0 1 690.5,539.9683 L116.5,539.9683 A2.5,2.5 0 0 1 114,537.4683 L114,443.4683 A2.5,2.5 0 0 1 116.5,440.9683 " fill="none" style="stroke:#000000;stroke-width:1.5;"/><line style="stroke:#000000;stroke-width:1.5;" x1="114" x2="300" y1="463.4566" y2="463.4566"/><text fill="#000000" font-family="sans-serif" font-size="14" font-weight="bold" lengthAdjust="spacing" textLength="173" x="118" y="456.5034">Imnplementation (PF1e)</text></g><!--class PenType--><g id="elem_PenType"><rect codeLine="6" fill="#F1F1F1" height="80.9766" id="PenType" rx="2.5" ry="2.5" style="stroke:#181818;stroke-width:0.5;" width="143" x="756.5" y="459.4883"/><ellipse cx="795.35" cy="475.4883" fill="#B4A7E5" rx="11" ry="11" style="stroke:#181818;stroke-width:1.0;"/><path d="M791.7777,471.7534 L791.7777,469.5952 L799.1571,469.5952 L799.1571,471.7534 L796.6918,471.7534 L796.6918,479.8301 L799.1571,479.8301 L799.1571,481.9883 L791.7777,481.9883 L791.7777,479.8301 L794.2431,479.8301 L794.2431,471.7534 Z " fill="#000000"/><text fill="#000000" font-family="sans-serif" font-size="14" font-style="italic" lengthAdjust="spacing" textLength="58" x="814.65" y="480.7793">PenType</text><line style="stroke:#181818;stroke-width:0.5;" x1="757.5" x2="898.5" y1="491.4883" y2="491.4883"/><line style="stroke:#181818;stroke-width:0.5;" x1="757.5" x2="898.5" y1="499.4883" y2="499.4883"/><polygon fill="#4177AF" points="767.5,509.2324,763.5,515.2324,771.5,515.2324" style="stroke:#1963A0;stroke-width:1.0;"/><text fill="#000000" font-family="sans-serif" font-size="14" lengthAdjust="spacing" textLength="117" x="776.5" y="517.0234">rotate(): PenType</text><polygon fill="#4177AF" points="767.5,525.7207,763.5,531.7207,771.5,531.7207" style="stroke:#1963A0;stroke-width:1.0;"/><text fill="#000000" font-family="sans-serif" font-size="14" lengthAdjust="spacing" textLength="110" x="776.5" y="533.5117">scale(): PenType</text></g><!--class Color--><g id="elem_Color"><rect codeLine="10" fill="#F1F1F1" height="80.9766" id="Color" rx="2.5" ry="2.5" style="stroke:#181818;stroke-width:0.5;" width="123" x="756.5" y="610.9683"/><ellipse cx="795.35" cy="626.9683" fill="#A9DCDF" rx="11" ry="11" style="stroke:#181818;stroke-width:1.0;"/><path d="M795.2133,622.3164 L794.0595,627.3882 L796.3754,627.3882 Z M793.7191,620.0752 L796.7157,620.0752 L800.0609,632.4683 L797.6122,632.4683 L796.8485,629.4053 L793.5697,629.4053 L792.8227,632.4683 L790.3739,632.4683 Z " fill="#000000"/><text fill="#000000" font-family="sans-serif" font-size="14" font-style="italic" lengthAdjust="spacing" textLength="38" x="814.65" y="632.2593">Color</text><line style="stroke:#181818;stroke-width:0.5;" x1="757.5" x2="878.5" y1="642.9683" y2="642.9683"/><line style="stroke:#181818;stroke-width:0.5;" x1="757.5" x2="878.5" y1="650.9683" y2="650.9683"/><polygon fill="#4177AF" points="767.5,660.7124,763.5,666.7124,771.5,666.7124" style="stroke:#1963A0;stroke-width:1.0;"/><text fill="#000000" font-family="sans-serif" font-size="14" lengthAdjust="spacing" textLength="97" x="776.5" y="668.5034">rotate(): Color</text><polygon fill="#4177AF" points="767.5,677.2007,763.5,683.2007,771.5,683.2007" style="stroke:#1963A0;stroke-width:1.0;"/><text fill="#000000" font-family="sans-serif" font-size="14" lengthAdjust="spacing" textLength="90" x="776.5" y="684.9917">scale(): Color</text></g><!--class Texture--><g id="elem_Texture"><rect codeLine="14" fill="#F1F1F1" height="80.9766" id="Texture" rx="2.5" ry="2.5" style="stroke:#181818;stroke-width:0.5;" width="139" x="914.5" y="610.9683"/><ellipse cx="953.35" cy="626.9683" fill="#A9DCDF" rx="11" ry="11" style="stroke:#181818;stroke-width:1.0;"/><path d="M953.2133,622.3164 L952.0595,627.3882 L954.3754,627.3882 Z M951.7191,620.0752 L954.7157,620.0752 L958.0609,632.4683 L955.6122,632.4683 L954.8485,629.4053 L951.5697,629.4053 L950.8227,632.4683 L948.3739,632.4683 Z " fill="#000000"/><text fill="#000000" font-family="sans-serif" font-size="14" font-style="italic" lengthAdjust="spacing" textLength="54" x="972.65" y="632.2593">Texture</text><line style="stroke:#181818;stroke-width:0.5;" x1="915.5" x2="1052.5" y1="642.9683" y2="642.9683"/><line style="stroke:#181818;stroke-width:0.5;" x1="915.5" x2="1052.5" y1="650.9683" y2="650.9683"/><polygon fill="#4177AF" points="925.5,660.7124,921.5,666.7124,929.5,666.7124" style="stroke:#1963A0;stroke-width:1.0;"/><text fill="#000000" font-family="sans-serif" font-size="14" lengthAdjust="spacing" textLength="113" x="934.5" y="668.5034">rotate(): Texture</text><polygon fill="#4177AF" points="925.5,677.2007,921.5,683.2007,929.5,683.2007" style="stroke:#1963A0;stroke-width:1.0;"/><text fill="#000000" font-family="sans-serif" font-size="14" lengthAdjust="spacing" textLength="106" x="934.5" y="684.9917">scale(): Texture</text></g><!--class DrawingTool--><g id="elem_DrawingTool"><rect codeLine="21" fill="#F1F1F1" height="179.9063" id="DrawingTool" rx="2.5" ry="2.5" style="stroke:#181818;stroke-width:0.5;" width="373" x="319.5" y="178.4883"/><ellipse cx="457.75" cy="194.4883" fill="#ADD1B2" rx="11" ry="11" style="stroke:#181818;stroke-width:1.0;"/><path d="M460.2231,200.6313 Q459.6421,200.9302 459.0029,201.0796 Q458.3638,201.229 457.6582,201.229 Q455.1514,201.229 453.8315,199.5771 Q452.5117,197.9253 452.5117,194.8042 Q452.5117,191.6748 453.8315,190.0229 Q455.1514,188.3711 457.6582,188.3711 Q458.3638,188.3711 459.0112,188.5205 Q459.6587,188.6699 460.2231,188.9688 L460.2231,191.6914 Q459.5923,191.1104 458.9988,190.8406 Q458.4053,190.5708 457.7744,190.5708 Q456.4297,190.5708 455.7449,191.6375 Q455.0601,192.7041 455.0601,194.8042 Q455.0601,196.896 455.7449,197.9626 Q456.4297,199.0293 457.7744,199.0293 Q458.4053,199.0293 458.9988,198.7595 Q459.5923,198.4897 460.2231,197.9087 Z " fill="#000000"/><text fill="#000000" font-family="sans-serif" font-size="14" lengthAdjust="spacing" textLength="88" x="478.25" y="199.7793">DrawingTool</text><line style="stroke:#181818;stroke-width:0.5;" x1="320.5" x2="691.5" y1="210.4883" y2="210.4883"/><ellipse cx="330.5" cy="224.2324" fill="#84BE84" rx="3" ry="3" style="stroke:#038048;stroke-width:1.0;"/><text fill="#000000" font-family="sans-serif" font-size="14" lengthAdjust="spacing" textLength="347" x="339.5" y="228.0234">start(l: Layer, z: Zone, g: Grid, t: Token = null): void</text><polygon fill="#FFFF44" points="330.5,256.209,334.5,260.209,330.5,264.209,326.5,260.209" style="stroke:#B38D22;stroke-width:1.0;"/><text fill="#000000" font-family="sans-serif" font-size="14" lengthAdjust="spacing" textLength="173" x="339.5" y="265">showFillPicker(): PenType</text><polygon fill="#FFFF44" points="330.5,272.6973,334.5,276.6973,330.5,280.6973,326.5,276.6973" style="stroke:#B38D22;stroke-width:1.0;"/><text fill="#000000" font-family="sans-serif" font-size="14" lengthAdjust="spacing" textLength="197" x="339.5" y="281.4883">showStrokePicker(): PenType</text><polygon fill="#FFFF44" points="330.5,289.1855,334.5,293.1855,330.5,297.1855,326.5,293.1855" style="stroke:#B38D22;stroke-width:1.0;"/><text fill="#000000" font-family="sans-serif" font-size="14" lengthAdjust="spacing" textLength="162" x="339.5" y="297.9766">setFill(p: PenType): void</text><polygon fill="#FFFF44" points="330.5,305.6738,334.5,309.6738,330.5,313.6738,326.5,309.6738" style="stroke:#B38D22;stroke-width:1.0;"/><text fill="#000000" font-family="sans-serif" font-size="14" lengthAdjust="spacing" textLength="186" x="339.5" y="314.4648">setStroke(p: PenType): void</text><line style="stroke:#181818;stroke-width:1.0;stroke-dasharray:1.0,2.0;" x1="320.5" x2="423.5" y1="243.2207" y2="243.2207"/><text fill="#000000" font-family="sans-serif" font-size="14" lengthAdjust="spacing" textLength="165" x="423.5" y="248.0117">Palette-related Methods</text><line style="stroke:#181818;stroke-width:1.0;stroke-dasharray:1.0,2.0;" x1="588.5" x2="691.5" y1="243.2207" y2="243.2207"/><polygon fill="#FFFF44" points="330.5,342.6504,334.5,346.6504,330.5,350.6504,326.5,346.6504" style="stroke:#B38D22;stroke-width:1.0;"/><text fill="#000000" font-family="sans-serif" font-size="14" lengthAdjust="spacing" textLength="176" x="339.5" y="351.4414">getCurrentPen(): PenType</text><line style="stroke:#181818;stroke-width:1.0;stroke-dasharray:1.0,2.0;" x1="320.5" x2="420" y1="329.6621" y2="329.6621"/><text fill="#000000" font-family="sans-serif" font-size="14" lengthAdjust="spacing" textLength="172" x="420" y="334.4531">Texture Scaling/Rotating</text><line style="stroke:#181818;stroke-width:1.0;stroke-dasharray:1.0,2.0;" x1="592" x2="691.5" y1="329.6621" y2="329.6621"/></g><path d="M22,227.3583 L22,298.6005 A0,0 0 0 0 22,298.6005 L276,298.6005 A0,0 0 0 0 276,298.6005 L276,266.9794 L323.5,346.1504 L276,258.9794 L276,237.3583 L266,227.3583 L22,227.3583 A0,0 0 0 0 22,227.3583 " fill="#FEFFDD" style="stroke:#181818;stroke-width:0.5;"/><path d="M266,227.3583 L266,237.3583 L276,237.3583 L266,227.3583 " fill="#FEFFDD" style="stroke:#181818;stroke-width:0.5;"/><text fill="#000000" font-family="sans-serif" font-size="13" lengthAdjust="spacing" textLength="116" x="28" y="244.9266">rotating or scaling</text><text fill="#000000" font-family="monospace" font-size="13" lengthAdjust="spacing" textLength="56" x="148" y="244.6029">Texture</text><text fill="#000000" font-family="sans-serif" font-size="13" lengthAdjust="spacing" textLength="57" x="204" y="244.9266">s is done</text><text fill="#000000" font-family="sans-serif" font-size="13" lengthAdjust="spacing" textLength="103" x="28" y="260.2372">by retrieving the</text><text fill="#000000" font-family="monospace" font-size="13" lengthAdjust="spacing" textLength="56" x="135" y="259.9135">PenType</text><text fill="#000000" font-family="sans-serif" font-size="13" lengthAdjust="spacing" textLength="23" x="195" y="260.2372">and</text><text fill="#000000" font-family="sans-serif" font-size="13" lengthAdjust="spacing" textLength="193" x="28" y="275.5477">calling the associated method;</text><text fill="#000000" font-family="sans-serif" font-size="13" lengthAdjust="spacing" textLength="32" x="28" y="290.8583">non-</text><text fill="#000000" font-family="monospace" font-size="13" lengthAdjust="spacing" textLength="56" x="60" y="290.5346">Texture</text><text fill="#000000" font-family="sans-serif" font-size="13" lengthAdjust="spacing" textLength="123" x="116" y="290.8583">s ignore those calls</text><!--class CircleTool--><g id="elem_CircleTool"><rect codeLine="42" fill="#F1F1F1" height="48" id="CircleTool" rx="2.5" ry="2.5" style="stroke:#181818;stroke-width:0.5;" width="102" x="130" y="475.9683"/><ellipse cx="145" cy="491.9683" fill="#ADD1B2" rx="11" ry="11" style="stroke:#181818;stroke-width:1.0;"/><path d="M147.4731,498.1113 Q146.8921,498.4102 146.2529,498.5596 Q145.6138,498.709 144.9082,498.709 Q142.4014,498.709 141.0815,497.0571 Q139.7617,495.4053 139.7617,492.2842 Q139.7617,489.1548 141.0815,487.5029 Q142.4014,485.8511 144.9082,485.8511 Q145.6138,485.8511 146.2612,486.0005 Q146.9087,486.1499 147.4731,486.4488 L147.4731,489.1714 Q146.8423,488.5904 146.2488,488.3206 Q145.6553,488.0508 145.0244,488.0508 Q143.6797,488.0508 142.9949,489.1175 Q142.3101,490.1841 142.3101,492.2842 Q142.3101,494.376 142.9949,495.4426 Q143.6797,496.5093 145.0244,496.5093 Q145.6553,496.5093 146.2488,496.2395 Q146.8423,495.9697 147.4731,495.3887 Z " fill="#000000"/><text fill="#000000" font-family="sans-serif" font-size="14" lengthAdjust="spacing" textLength="70" x="159" y="497.2593">CircleTool</text><line style="stroke:#181818;stroke-width:0.5;" x1="131" x2="231" y1="507.9683" y2="507.9683"/><line style="stroke:#181818;stroke-width:0.5;" x1="131" x2="231" y1="515.9683" y2="515.9683"/></g><!--class PolygonTool--><g id="elem_PolygonTool"><rect codeLine="45" fill="#F1F1F1" height="48" id="PolygonTool" rx="2.5" ry="2.5" style="stroke:#181818;stroke-width:0.5;" width="118" x="267" y="475.9683"/><ellipse cx="282" cy="491.9683" fill="#ADD1B2" rx="11" ry="11" style="stroke:#181818;stroke-width:1.0;"/><path d="M284.4731,498.1113 Q283.8921,498.4102 283.2529,498.5596 Q282.6138,498.709 281.9082,498.709 Q279.4014,498.709 278.0815,497.0571 Q276.7617,495.4053 276.7617,492.2842 Q276.7617,489.1548 278.0815,487.5029 Q279.4014,485.8511 281.9082,485.8511 Q282.6138,485.8511 283.2612,486.0005 Q283.9087,486.1499 284.4731,486.4488 L284.4731,489.1714 Q283.8423,488.5904 283.2488,488.3206 Q282.6553,488.0508 282.0244,488.0508 Q280.6797,488.0508 279.9949,489.1175 Q279.3101,490.1841 279.3101,492.2842 Q279.3101,494.376 279.9949,495.4426 Q280.6797,496.5093 282.0244,496.5093 Q282.6553,496.5093 283.2488,496.2395 Q283.8423,495.9697 284.4731,495.3887 Z " fill="#000000"/><text fill="#000000" font-family="sans-serif" font-size="14" lengthAdjust="spacing" textLength="86" x="296" y="497.2593">PolygonTool</text><line style="stroke:#181818;stroke-width:0.5;" x1="268" x2="384" y1="507.9683" y2="507.9683"/><line style="stroke:#181818;stroke-width:0.5;" x1="268" x2="384" y1="515.9683" y2="515.9683"/></g><!--class RectangleTool--><g id="elem_RectangleTool"><rect codeLine="48" fill="#F1F1F1" height="48" id="RectangleTool" rx="2.5" ry="2.5" style="stroke:#181818;stroke-width:0.5;" width="130" x="420" y="475.9683"/><ellipse cx="435" cy="491.9683" fill="#ADD1B2" rx="11" ry="11" style="stroke:#181818;stroke-width:1.0;"/><path d="M437.4731,498.1113 Q436.8921,498.4102 436.2529,498.5596 Q435.6138,498.709 434.9082,498.709 Q432.4014,498.709 431.0815,497.0571 Q429.7617,495.4053 429.7617,492.2842 Q429.7617,489.1548 431.0815,487.5029 Q432.4014,485.8511 434.9082,485.8511 Q435.6138,485.8511 436.2612,486.0005 Q436.9087,486.1499 437.4731,486.4488 L437.4731,489.1714 Q436.8423,488.5904 436.2488,488.3206 Q435.6553,488.0508 435.0244,488.0508 Q433.6797,488.0508 432.9949,489.1175 Q432.3101,490.1841 432.3101,492.2842 Q432.3101,494.376 432.9949,495.4426 Q433.6797,496.5093 435.0244,496.5093 Q435.6553,496.5093 436.2488,496.2395 Q436.8423,495.9697 437.4731,495.3887 Z " fill="#000000"/><text fill="#000000" font-family="sans-serif" font-size="14" lengthAdjust="spacing" textLength="98" x="449" y="497.2593">RectangleTool</text><line style="stroke:#181818;stroke-width:0.5;" x1="421" x2="549" y1="507.9683" y2="507.9683"/><line style="stroke:#181818;stroke-width:0.5;" x1="421" x2="549" y1="515.9683" y2="515.9683"/></g><!--class LineTool--><g id="elem_LineTool"><rect codeLine="51" fill="#F1F1F1" height="48" id="LineTool" rx="2.5" ry="2.5" style="stroke:#181818;stroke-width:0.5;" width="91" x="585.5" y="475.9683"/><ellipse cx="600.5" cy="491.9683" fill="#ADD1B2" rx="11" ry="11" style="stroke:#181818;stroke-width:1.0;"/><path d="M602.9731,498.1113 Q602.3921,498.4102 601.7529,498.5596 Q601.1138,498.709 600.4082,498.709 Q597.9014,498.709 596.5815,497.0571 Q595.2617,495.4053 595.2617,492.2842 Q595.2617,489.1548 596.5815,487.5029 Q597.9014,485.8511 600.4082,485.8511 Q601.1138,485.8511 601.7612,486.0005 Q602.4087,486.1499 602.9731,486.4488 L602.9731,489.1714 Q602.3423,488.5904 601.7488,488.3206 Q601.1553,488.0508 600.5244,488.0508 Q599.1797,488.0508 598.4949,489.1175 Q597.8101,490.1841 597.8101,492.2842 Q597.8101,494.376 598.4949,495.4426 Q599.1797,496.5093 600.5244,496.5093 Q601.1553,496.5093 601.7488,496.2395 Q602.3423,495.9697 602.9731,495.3887 Z " fill="#000000"/><text fill="#000000" font-family="sans-serif" font-size="14" lengthAdjust="spacing" textLength="59" x="614.5" y="497.2593">LineTool</text><line style="stroke:#181818;stroke-width:0.5;" x1="586.5" x2="675.5" y1="507.9683" y2="507.9683"/><line style="stroke:#181818;stroke-width:0.5;" x1="586.5" x2="675.5" y1="515.9683" y2="515.9683"/></g><!--class ToolPlugin--><g id="elem_ToolPlugin"><rect codeLine="3" fill="#F1F1F1" height="48" id="ToolPlugin" rx="2.5" ry="2.5" style="stroke:#181818;stroke-width:0.5;" width="106" x="453" y="44.4883"/><ellipse cx="468" cy="60.4883" fill="#B4A7E5" rx="11" ry="11" style="stroke:#181818;stroke-width:1.0;"/><path d="M464.4277,56.7534 L464.4277,54.5952 L471.8071,54.5952 L471.8071,56.7534 L469.3418,56.7534 L469.3418,64.8301 L471.8071,64.8301 L471.8071,66.9883 L464.4277,66.9883 L464.4277,64.8301 L466.8931,64.8301 L466.8931,56.7534 Z " fill="#000000"/><text fill="#000000" font-family="sans-serif" font-size="14" font-style="italic" lengthAdjust="spacing" textLength="74" x="482" y="65.7793">ToolPlugin</text><line style="stroke:#181818;stroke-width:0.5;" x1="454" x2="558" y1="76.4883" y2="76.4883"/><line style="stroke:#181818;stroke-width:0.5;" x1="454" x2="558" y1="84.4883" y2="84.4883"/></g><!--reverse link PenType to Color--><g id="link_PenType_Color"><path d="M824.146,558.598 C822.696,580.228 822.11,588.9583 820.67,610.6083 " fill="none" id="PenType-backto-Color" style="stroke:#181818;stroke-width:1.0;stroke-dasharray:7.0,7.0;"/><polygon fill="none" points="825.35,540.6383,818.1595,558.1967,830.1326,558.9993,825.35,540.6383" style="stroke:#181818;stroke-width:1.0;"/></g><!--reverse link PenType to Texture--><g id="link_PenType_Texture"><path d="M882.3929,553.0956 C904.9529,574.7256 919.81,588.9583 942.41,610.6083 " fill="none" id="PenType-backto-Texture" style="stroke:#181818;stroke-width:1.0;stroke-dasharray:7.0,7.0;"/><polygon fill="none" points="869.4,540.6383,878.2405,557.4265,886.5453,548.7646,869.4,540.6383" style="stroke:#181818;stroke-width:1.0;"/></g><!--reverse link ToolPlugin to DrawingTool--><g id="link_ToolPlugin_DrawingTool"><path d="M506,110.9183 C506,131.3483 506,144.3783 506,174.6083 " fill="none" id="ToolPlugin-backto-DrawingTool" style="stroke:#181818;stroke-width:1.0;stroke-dasharray:7.0,7.0;"/><polygon fill="none" points="506,92.9183,500,110.9183,512,110.9183,506,92.9183" style="stroke:#181818;stroke-width:1.0;"/></g><!--link DrawingTool to PenType--><g id="link_DrawingTool_PenType"><path codeLine="39" d="M694,257.9883 C784.96,257.9883 814.71,390.7283 824.01,459.1783 " fill="none" id="DrawingTool-PenType" style="stroke:#181818;stroke-width:1.0;"/><text fill="#000000" font-family="sans-serif" font-size="13" lengthAdjust="spacing" textLength="29" x="815" y="405.0566">uses</text></g><!--reverse link DrawingTool to CircleTool--><g id="link_DrawingTool_CircleTool"><path d="M310.2936,370.9623 C283.5536,387.7823 272.39,396.7383 249,416.4883 C228.44,433.8483 209.35,457.9983 196.67,475.6883 " fill="none" id="DrawingTool-backto-CircleTool" style="stroke:#181818;stroke-width:1.0;stroke-dasharray:7.0,7.0;"/><polygon fill="none" points="325.53,361.3783,307.099,365.8835,313.4883,376.0411,325.53,361.3783" style="stroke:#181818;stroke-width:1.0;"/></g><!--reverse link DrawingTool to PolygonTool--><g id="link_DrawingTool_PolygonTool"><path d="M422.7261,375.3831 C390.0661,417.1131 365.23,448.8483 344.19,475.7283 " fill="none" id="DrawingTool-backto-PolygonTool" style="stroke:#181818;stroke-width:1.0;stroke-dasharray:7.0,7.0;"/><polygon fill="none" points="433.82,361.2083,418.0012,371.6851,427.451,379.0811,433.82,361.2083" style="stroke:#181818;stroke-width:1.0;"/></g><!--reverse link DrawingTool to RectangleTool--><g id="link_DrawingTool_RectangleTool"><path d="M495.9434,379.1337 C492.1334,420.8637 489.58,448.8483 487.12,475.7283 " fill="none" id="DrawingTool-backto-RectangleTool" style="stroke:#181818;stroke-width:1.0;stroke-dasharray:7.0,7.0;"/><polygon fill="none" points="497.58,361.2083,489.9682,378.5882,501.9185,379.6793,497.58,361.2083" style="stroke:#181818;stroke-width:1.0;"/></g><!--reverse link DrawingTool to LineTool--><g id="link_DrawingTool_LineTool"><path d="M564.7184,377.0218 C587.4084,418.7518 603.76,448.8483 618.37,475.7283 " fill="none" id="DrawingTool-backto-LineTool" style="stroke:#181818;stroke-width:1.0;stroke-dasharray:7.0,7.0;"/><polygon fill="none" points="556.12,361.2083,559.4472,379.8879,569.9895,374.1557,556.12,361.2083" style="stroke:#181818;stroke-width:1.0;"/></g><!--SRC=[fLF1Rjim3BtxAmZjacAnXbqzxDIXGu4ECDhiifjYCuuGHGeafbqsPDy-MfPZEms23VN1DiIdzyX7aZGP1B5mpYoLXno-UFMYRIEoJ5j2lr8LGXijpRxHDijsgjge1k4xQHFWTmRy3CWIxUAmmtJUFd-y8qKukodwu10AbJAl8iVuLij0NbK4bL4XmAqppeFUxWnkqLAuBXJH5sI6yuiY2_n9Uu__B9Fm5uJ6aMDs75nBxYQ-JZQTjIQFfUNW-aZ-VI3bQMOAU507z7FuLS0FPt4EJG5VlQxdGAplDcZXCzYzCPpEizFrYK7AahCamjoZuKfg-8QqTdMGyeHv5zRkvKuRK-fgW_vIyoBaYJmhNGCXjJIptIbsdauBwMYkWAJiU_F45hDP7nxRBl3FEEa6wNRlFRl7DA_7Adwi8mI3AmAt6ZjV59FRYTGd5U3X2vqo295o4IA03b2p-mc-F817yXgVMo2jUR54oa48KBOlY9bCZ-09S9MEVTZ6FdnA8EjiFjLgh6C761CmKeI8H5l7ghhw9YLDkmXv3ZAkhUp7ke1zmD3TF1jHUT-F8ZlWBES9udvh9sUpykuZteZHUAPjrRuoU3xGFV5uteURgJy3IUdCeN7sZIoFM96opPkpUT3slodwxVyB]--></g></svg>