<?xml version="1.0" encoding="us-ascii" standalone="no"?><svg xmlns="http://www.w3.org/2000/svg" xmlns:xlink="http://www.w3.org/1999/xlink" contentStyleType="text/css" height="355px" preserveAspectRatio="none" style="width:640px;height:355px;background:#FFFFFF;" version="1.1" viewBox="0 0 640 355" width="640px" zoomAndPan="magnify"><defs/><g><text fill="#000000" font-family="sans-serif" font-size="14" font-weight="bold" lengthAdjust="spacing" textLength="135" x="245.5" y="23.5352">Toolbar - Drawing</text><!--cluster Drawing--><g id="cluster_Drawing"><path d="M8.5,117.4883 L69.5,117.4883 A3.75,3.75 0 0 1 72,119.9883 L79,139.9766 L630.5,139.9766 A2.5,2.5 0 0 1 633,142.4766 L633,345.9883 A2.5,2.5 0 0 1 630.5,348.4883 L8.5,348.4883 A2.5,2.5 0 0 1 6,345.9883 L6,119.9883 A2.5,2.5 0 0 1 8.5,117.4883 " fill="none" style="stroke:#000000;stroke-width:1.5;"/><line style="stroke:#000000;stroke-width:1.5;" x1="6" x2="79" y1="139.9766" y2="139.9766"/><text fill="#000000" font-family="sans-serif" font-size="14" font-weight="bold" lengthAdjust="spacing" textLength="60" x="10" y="133.0234">Drawing</text></g><!--cluster Implementation--><g id="cluster_Implementation"><path d="M32.5,225.4883 L206.5,225.4883 A3.75,3.75 0 0 1 209,227.9883 L216,247.9766 L606.5,247.9766 A2.5,2.5 0 0 1 609,250.4766 L609,321.9883 A2.5,2.5 0 0 1 606.5,324.4883 L32.5,324.4883 A2.5,2.5 0 0 1 30,321.9883 L30,227.9883 A2.5,2.5 0 0 1 32.5,225.4883 " fill="none" style="stroke:#000000;stroke-width:1.5;"/><line style="stroke:#000000;stroke-width:1.5;" x1="30" x2="216" y1="247.9766" y2="247.9766"/><text fill="#000000" font-family="sans-serif" font-size="14" font-weight="bold" lengthAdjust="spacing" textLength="173" x="34" y="241.0234">Imnplementation (PF1e)</text></g><!--class DrawingTool--><g id="elem_DrawingTool"><rect codeLine="6" fill="#F1F1F1" height="48" id="DrawingTool" rx="2.5" ry="2.5" style="stroke:#181818;stroke-width:0.5;" width="120" x="257" y="152.4883"/><ellipse cx="272" cy="168.4883" fill="#ADD1B2" rx="11" ry="11" style="stroke:#181818;stroke-width:1.0;"/><path d="M274.4731,174.6313 Q273.8921,174.9302 273.2529,175.0796 Q272.6138,175.229 271.9082,175.229 Q269.4014,175.229 268.0815,173.5771 Q266.7617,171.9253 266.7617,168.8042 Q266.7617,165.6748 268.0815,164.0229 Q269.4014,162.3711 271.9082,162.3711 Q272.6138,162.3711 273.2612,162.5205 Q273.9087,162.6699 274.4731,162.9688 L274.4731,165.6914 Q273.8423,165.1104 273.2488,164.8406 Q272.6553,164.5708 272.0244,164.5708 Q270.6797,164.5708 269.9949,165.6375 Q269.3101,166.7041 269.3101,168.8042 Q269.3101,170.896 269.9949,171.9626 Q270.6797,173.0293 272.0244,173.0293 Q272.6553,173.0293 273.2488,172.7595 Q273.8423,172.4897 274.4731,171.9087 Z " fill="#000000"/><text fill="#000000" font-family="sans-serif" font-size="14" lengthAdjust="spacing" textLength="88" x="286" y="173.7793">DrawingTool</text><line style="stroke:#181818;stroke-width:0.5;" x1="258" x2="376" y1="184.4883" y2="184.4883"/><line style="stroke:#181818;stroke-width:0.5;" x1="258" x2="376" y1="192.4883" y2="192.4883"/></g><!--class CircleTool--><g id="elem_CircleTool"><rect codeLine="10" fill="#F1F1F1" height="48" id="CircleTool" rx="2.5" ry="2.5" style="stroke:#181818;stroke-width:0.5;" width="102" x="491" y="260.4883"/><ellipse cx="506" cy="276.4883" fill="#ADD1B2" rx="11" ry="11" style="stroke:#181818;stroke-width:1.0;"/><path d="M508.4731,282.6313 Q507.8921,282.9302 507.2529,283.0796 Q506.6138,283.229 505.9082,283.229 Q503.4014,283.229 502.0815,281.5771 Q500.7617,279.9253 500.7617,276.8042 Q500.7617,273.6748 502.0815,272.0229 Q503.4014,270.3711 505.9082,270.3711 Q506.6138,270.3711 507.2612,270.5205 Q507.9087,270.6699 508.4731,270.9688 L508.4731,273.6914 Q507.8423,273.1104 507.2488,272.8406 Q506.6553,272.5708 506.0244,272.5708 Q504.6797,272.5708 503.9949,273.6375 Q503.3101,274.7041 503.3101,276.8042 Q503.3101,278.896 503.9949,279.9626 Q504.6797,281.0293 506.0244,281.0293 Q506.6553,281.0293 507.2488,280.7595 Q507.8423,280.4897 508.4731,279.9087 Z " fill="#000000"/><text fill="#000000" font-family="sans-serif" font-size="14" lengthAdjust="spacing" textLength="70" x="520" y="281.7793">CircleTool</text><line style="stroke:#181818;stroke-width:0.5;" x1="492" x2="592" y1="292.4883" y2="292.4883"/><line style="stroke:#181818;stroke-width:0.5;" x1="492" x2="592" y1="300.4883" y2="300.4883"/></g><!--class PolygonTool--><g id="elem_PolygonTool"><rect codeLine="13" fill="#F1F1F1" height="48" id="PolygonTool" rx="2.5" ry="2.5" style="stroke:#181818;stroke-width:0.5;" width="118" x="338" y="260.4883"/><ellipse cx="353" cy="276.4883" fill="#ADD1B2" rx="11" ry="11" style="stroke:#181818;stroke-width:1.0;"/><path d="M355.4731,282.6313 Q354.8921,282.9302 354.2529,283.0796 Q353.6138,283.229 352.9082,283.229 Q350.4014,283.229 349.0815,281.5771 Q347.7617,279.9253 347.7617,276.8042 Q347.7617,273.6748 349.0815,272.0229 Q350.4014,270.3711 352.9082,270.3711 Q353.6138,270.3711 354.2612,270.5205 Q354.9087,270.6699 355.4731,270.9688 L355.4731,273.6914 Q354.8423,273.1104 354.2488,272.8406 Q353.6553,272.5708 353.0244,272.5708 Q351.6797,272.5708 350.9949,273.6375 Q350.3101,274.7041 350.3101,276.8042 Q350.3101,278.896 350.9949,279.9626 Q351.6797,281.0293 353.0244,281.0293 Q353.6553,281.0293 354.2488,280.7595 Q354.8423,280.4897 355.4731,279.9087 Z " fill="#000000"/><text fill="#000000" font-family="sans-serif" font-size="14" lengthAdjust="spacing" textLength="86" x="367" y="281.7793">PolygonTool</text><line style="stroke:#181818;stroke-width:0.5;" x1="339" x2="455" y1="292.4883" y2="292.4883"/><line style="stroke:#181818;stroke-width:0.5;" x1="339" x2="455" y1="300.4883" y2="300.4883"/></g><!--class RectangleTool--><g id="elem_RectangleTool"><rect codeLine="16" fill="#F1F1F1" height="48" id="RectangleTool" rx="2.5" ry="2.5" style="stroke:#181818;stroke-width:0.5;" width="130" x="173" y="260.4883"/><ellipse cx="188" cy="276.4883" fill="#ADD1B2" rx="11" ry="11" style="stroke:#181818;stroke-width:1.0;"/><path d="M190.4731,282.6313 Q189.8921,282.9302 189.2529,283.0796 Q188.6138,283.229 187.9082,283.229 Q185.4014,283.229 184.0815,281.5771 Q182.7617,279.9253 182.7617,276.8042 Q182.7617,273.6748 184.0815,272.0229 Q185.4014,270.3711 187.9082,270.3711 Q188.6138,270.3711 189.2612,270.5205 Q189.9087,270.6699 190.4731,270.9688 L190.4731,273.6914 Q189.8423,273.1104 189.2488,272.8406 Q188.6553,272.5708 188.0244,272.5708 Q186.6797,272.5708 185.9949,273.6375 Q185.3101,274.7041 185.3101,276.8042 Q185.3101,278.896 185.9949,279.9626 Q186.6797,281.0293 188.0244,281.0293 Q188.6553,281.0293 189.2488,280.7595 Q189.8423,280.4897 190.4731,279.9087 Z " fill="#000000"/><text fill="#000000" font-family="sans-serif" font-size="14" lengthAdjust="spacing" textLength="98" x="202" y="281.7793">RectangleTool</text><line style="stroke:#181818;stroke-width:0.5;" x1="174" x2="302" y1="292.4883" y2="292.4883"/><line style="stroke:#181818;stroke-width:0.5;" x1="174" x2="302" y1="300.4883" y2="300.4883"/></g><!--class LineTool--><g id="elem_LineTool"><rect codeLine="19" fill="#F1F1F1" height="48" id="LineTool" rx="2.5" ry="2.5" style="stroke:#181818;stroke-width:0.5;" width="91" x="46.5" y="260.4883"/><ellipse cx="61.5" cy="276.4883" fill="#ADD1B2" rx="11" ry="11" style="stroke:#181818;stroke-width:1.0;"/><path d="M63.9731,282.6313 Q63.3921,282.9302 62.7529,283.0796 Q62.1138,283.229 61.4082,283.229 Q58.9014,283.229 57.5815,281.5771 Q56.2617,279.9253 56.2617,276.8042 Q56.2617,273.6748 57.5815,272.0229 Q58.9014,270.3711 61.4082,270.3711 Q62.1138,270.3711 62.7612,270.5205 Q63.4087,270.6699 63.9731,270.9688 L63.9731,273.6914 Q63.3423,273.1104 62.7488,272.8406 Q62.1553,272.5708 61.5244,272.5708 Q60.1797,272.5708 59.4949,273.6375 Q58.8101,274.7041 58.8101,276.8042 Q58.8101,278.896 59.4949,279.9626 Q60.1797,281.0293 61.5244,281.0293 Q62.1553,281.0293 62.7488,280.7595 Q63.3423,280.4897 63.9731,279.9087 Z " fill="#000000"/><text fill="#000000" font-family="sans-serif" font-size="14" lengthAdjust="spacing" textLength="59" x="75.5" y="281.7793">LineTool</text><line style="stroke:#181818;stroke-width:0.5;" x1="47.5" x2="136.5" y1="292.4883" y2="292.4883"/><line style="stroke:#181818;stroke-width:0.5;" x1="47.5" x2="136.5" y1="300.4883" y2="300.4883"/></g><!--class ToolPlugin--><g id="elem_ToolPlugin"><rect codeLine="3" fill="#F1F1F1" height="48" id="ToolPlugin" rx="2.5" ry="2.5" style="stroke:#181818;stroke-width:0.5;" width="106" x="264" y="44.4883"/><ellipse cx="279" cy="60.4883" fill="#B4A7E5" rx="11" ry="11" style="stroke:#181818;stroke-width:1.0;"/><path d="M275.4277,56.7534 L275.4277,54.5952 L282.8071,54.5952 L282.8071,56.7534 L280.3418,56.7534 L280.3418,64.8301 L282.8071,64.8301 L282.8071,66.9883 L275.4277,66.9883 L275.4277,64.8301 L277.8931,64.8301 L277.8931,56.7534 Z " fill="#000000"/><text fill="#000000" font-family="sans-serif" font-size="14" font-style="italic" lengthAdjust="spacing" textLength="74" x="293" y="65.7793">ToolPlugin</text><line style="stroke:#181818;stroke-width:0.5;" x1="265" x2="369" y1="76.4883" y2="76.4883"/><line style="stroke:#181818;stroke-width:0.5;" x1="265" x2="369" y1="84.4883" y2="84.4883"/></g><!--reverse link ToolPlugin to DrawingTool--><g id="link_ToolPlugin_DrawingTool"><path d="M317,110.7483 C317,128.4283 317,134.6183 317,152.2783 " fill="none" id="ToolPlugin-backto-DrawingTool" style="stroke:#181818;stroke-width:1.0;stroke-dasharray:7.0,7.0;"/><polygon fill="none" points="317,92.7483,311,110.7483,323,110.7483,317,92.7483" style="stroke:#181818;stroke-width:1.0;"/></g><!--reverse link DrawingTool to CircleTool--><g id="link_DrawingTool_CircleTool"><path d="M394.8364,188.6139 C425.2864,194.3739 444.3,200.8783 474,217.4883 C493.24,228.2483 510.97,245.8283 523.5,260.1383 " fill="none" id="DrawingTool-backto-CircleTool" style="stroke:#181818;stroke-width:1.0;stroke-dasharray:7.0,7.0;"/><polygon fill="none" points="377.15,185.2683,393.7212,194.5093,395.9515,182.7184,377.15,185.2683" style="stroke:#181818;stroke-width:1.0;"/></g><!--reverse link DrawingTool to PolygonTool--><g id="link_DrawingTool_PolygonTool"><path d="M345.3964,215.1209 C358.7264,232.8009 366.16,242.6183 379.48,260.2783 " fill="none" id="DrawingTool-backto-PolygonTool" style="stroke:#181818;stroke-width:1.0;stroke-dasharray:7.0,7.0;"/><polygon fill="none" points="334.56,200.7483,340.6055,218.733,350.1873,211.5088,334.56,200.7483" style="stroke:#181818;stroke-width:1.0;"/></g><!--reverse link DrawingTool to RectangleTool--><g id="link_DrawingTool_RectangleTool"><path d="M288.9071,215.1835 C275.7371,232.8635 268.46,242.6183 255.3,260.2783 " fill="none" id="DrawingTool-backto-RectangleTool" style="stroke:#181818;stroke-width:1.0;stroke-dasharray:7.0,7.0;"/><polygon fill="none" points="299.66,200.7483,284.0954,211.5992,293.7188,218.7678,299.66,200.7483" style="stroke:#181818;stroke-width:1.0;"/></g><!--reverse link DrawingTool to LineTool--><g id="link_DrawingTool_LineTool"><path d="M238.8713,187.174 C207.0013,192.664 185.95,199.5483 155,217.4883 C136.64,228.1383 120.24,245.7183 108.77,260.0583 " fill="none" id="DrawingTool-backto-LineTool" style="stroke:#181818;stroke-width:1.0;stroke-dasharray:7.0,7.0;"/><polygon fill="none" points="256.61,184.1183,237.8527,181.2611,239.8898,193.0869,256.61,184.1183" style="stroke:#181818;stroke-width:1.0;"/></g><!--SRC=[fOx12i8m38RlVOhGanuS-0oACF0mn1U89PPWbuws8Y9xTvskL7UJvP10ylzV_iJ94UYZz-w40LQm3NXZiLefbaJXZ8PWk3RkQbcKwj1Sq5BMmKF1gup36FDka0EtdQEM94MeYd-Kz-ez9gogpXvCx0KmWgvR-TajcjsQbdhabDSR3iRHz7C6VmShpZ55WJJUtQsNcPG3cOHYPwVPi_oD-FHUFG40]--></g></svg>