<?xml version="1.0" encoding="us-ascii" standalone="no"?><svg xmlns="http://www.w3.org/2000/svg" xmlns:xlink="http://www.w3.org/1999/xlink" contentStyleType="text/css" height="524px" preserveAspectRatio="none" style="width:498px;height:524px;background:#FFFFFF;" version="1.1" viewBox="0 0 498 524" width="498px" zoomAndPan="magnify"><defs/><g><text fill="#000000" font-family="sans-serif" font-size="14" font-weight="bold" lengthAdjust="spacing" textLength="128" x="178" y="23.5352">Toolbar Overview</text><!--class ToolPlugin--><g id="elem_ToolPlugin"><rect codeLine="3" fill="#F1F1F1" height="80.9766" id="ToolPlugin" rx="2.5" ry="2.5" style="stroke:#181818;stroke-width:0.5;" width="274" x="64.5" y="153.4883"/><ellipse cx="160.25" cy="169.4883" fill="#B4A7E5" rx="11" ry="11" style="stroke:#181818;stroke-width:1.0;"/><path d="M156.6777,165.7534 L156.6777,163.5952 L164.0571,163.5952 L164.0571,165.7534 L161.5918,165.7534 L161.5918,173.8301 L164.0571,173.8301 L164.0571,175.9883 L156.6777,175.9883 L156.6777,173.8301 L159.1431,173.8301 L159.1431,165.7534 Z " fill="#000000"/><text fill="#000000" font-family="sans-serif" font-size="14" font-style="italic" lengthAdjust="spacing" textLength="74" x="180.75" y="174.7793">ToolPlugin</text><line style="stroke:#181818;stroke-width:0.5;" x1="65.5" x2="337.5" y1="185.4883" y2="185.4883"/><line style="stroke:#181818;stroke-width:0.5;" x1="65.5" x2="337.5" y1="193.4883" y2="193.4883"/><ellipse cx="75.5" cy="207.2324" fill="#84BE84" rx="3" ry="3" style="stroke:#038048;stroke-width:1.0;"/><text fill="#000000" font-family="sans-serif" font-size="14" lengthAdjust="spacing" textLength="248" x="84.5" y="211.0234">mouseClicked(ev: MouseEvent): void</text><ellipse cx="75.5" cy="223.7207" fill="#84BE84" rx="3" ry="3" style="stroke:#038048;stroke-width:1.0;"/><text fill="#000000" font-family="sans-serif" font-size="14" lengthAdjust="spacing" textLength="207" x="84.5" y="227.5117">keyPressed(ev: KeyEvent): void</text></g><!--class Bean--><g id="elem_Bean"><rect fill="#F1F1F1" height="48" id="Bean" rx="2.5" ry="2.5" style="stroke:#181818;stroke-width:0.5;" width="65" x="169" y="44.4883"/><ellipse cx="184" cy="60.4883" fill="#B4A7E5" rx="11" ry="11" style="stroke:#181818;stroke-width:1.0;"/><path d="M180.4277,56.7534 L180.4277,54.5952 L187.8071,54.5952 L187.8071,56.7534 L185.3418,56.7534 L185.3418,64.8301 L187.8071,64.8301 L187.8071,66.9883 L180.4277,66.9883 L180.4277,64.8301 L182.8931,64.8301 L182.8931,56.7534 Z " fill="#000000"/><text fill="#000000" font-family="sans-serif" font-size="14" font-style="italic" lengthAdjust="spacing" textLength="33" x="198" y="65.7793">Bean</text><line style="stroke:#181818;stroke-width:0.5;" x1="170" x2="233" y1="76.4883" y2="76.4883"/><line style="stroke:#181818;stroke-width:0.5;" x1="170" x2="233" y1="84.4883" y2="84.4883"/></g><!--class PointerTool--><g id="elem_PointerTool"><rect codeLine="8" fill="#F1F1F1" height="48" id="PointerTool" rx="2.5" ry="2.5" style="stroke:#181818;stroke-width:0.5;" width="112" x="18.5" y="336.1983"/><ellipse cx="33.5" cy="352.1983" fill="#ADD1B2" rx="11" ry="11" style="stroke:#181818;stroke-width:1.0;"/><path d="M35.9731,358.3413 Q35.3921,358.6402 34.7529,358.7896 Q34.1138,358.939 33.4082,358.939 Q30.9014,358.939 29.5815,357.2871 Q28.2617,355.6353 28.2617,352.5142 Q28.2617,349.3848 29.5815,347.7329 Q30.9014,346.0811 33.4082,346.0811 Q34.1138,346.0811 34.7612,346.2305 Q35.4087,346.3799 35.9731,346.6788 L35.9731,349.4014 Q35.3423,348.8204 34.7488,348.5506 Q34.1553,348.2808 33.5244,348.2808 Q32.1797,348.2808 31.4949,349.3475 Q30.8101,350.4141 30.8101,352.5142 Q30.8101,354.606 31.4949,355.6726 Q32.1797,356.7393 33.5244,356.7393 Q34.1553,356.7393 34.7488,356.4695 Q35.3423,356.1997 35.9731,355.6187 Z " fill="#000000"/><text fill="#000000" font-family="sans-serif" font-size="14" lengthAdjust="spacing" textLength="80" x="47.5" y="357.4893">PointerTool</text><line style="stroke:#181818;stroke-width:0.5;" x1="19.5" x2="129.5" y1="368.1983" y2="368.1983"/><line style="stroke:#181818;stroke-width:0.5;" x1="19.5" x2="129.5" y1="376.1983" y2="376.1983"/></g><!--class MeasuringTool--><g id="elem_MeasuringTool"><rect codeLine="11" fill="#F1F1F1" height="48" id="MeasuringTool" rx="2.5" ry="2.5" style="stroke:#181818;stroke-width:0.5;" width="135" x="7" y="469.9283"/><ellipse cx="22" cy="485.9283" fill="#ADD1B2" rx="11" ry="11" style="stroke:#181818;stroke-width:1.0;"/><path d="M24.4731,492.0713 Q23.8921,492.3702 23.2529,492.5196 Q22.6138,492.669 21.9082,492.669 Q19.4014,492.669 18.0815,491.0171 Q16.7617,489.3653 16.7617,486.2442 Q16.7617,483.1148 18.0815,481.4629 Q19.4014,479.8111 21.9082,479.8111 Q22.6138,479.8111 23.2612,479.9605 Q23.9087,480.1099 24.4731,480.4088 L24.4731,483.1314 Q23.8423,482.5504 23.2488,482.2806 Q22.6553,482.0108 22.0244,482.0108 Q20.6797,482.0108 19.9949,483.0775 Q19.3101,484.1441 19.3101,486.2442 Q19.3101,488.336 19.9949,489.4026 Q20.6797,490.4693 22.0244,490.4693 Q22.6553,490.4693 23.2488,490.1995 Q23.8423,489.9297 24.4731,489.3487 Z " fill="#000000"/><text fill="#000000" font-family="sans-serif" font-size="14" lengthAdjust="spacing" textLength="103" x="36" y="491.2193">MeasuringTool</text><line style="stroke:#181818;stroke-width:0.5;" x1="8" x2="141" y1="501.9283" y2="501.9283"/><line style="stroke:#181818;stroke-width:0.5;" x1="8" x2="141" y1="509.9283" y2="509.9283"/></g><!--class MapToolHook--><g id="elem_MapToolHook"><rect codeLine="14" fill="#F1F1F1" height="97.4648" id="MapToolHook" rx="2.5" ry="2.5" style="stroke:#181818;stroke-width:0.5;" width="325" x="166" y="311.4683"/><ellipse cx="276.25" cy="327.4683" fill="#B4A7E5" rx="11" ry="11" style="stroke:#181818;stroke-width:1.0;"/><path d="M272.6777,323.7334 L272.6777,321.5752 L280.0571,321.5752 L280.0571,323.7334 L277.5918,323.7334 L277.5918,331.8101 L280.0571,331.8101 L280.0571,333.9683 L272.6777,333.9683 L272.6777,331.8101 L275.1431,331.8101 L275.1431,323.7334 Z " fill="#000000"/><text fill="#000000" font-family="sans-serif" font-size="14" font-style="italic" lengthAdjust="spacing" textLength="96" x="296.75" y="332.7593">MapToolHook</text><line style="stroke:#181818;stroke-width:0.5;" x1="167" x2="490" y1="343.4683" y2="343.4683"/><line style="stroke:#181818;stroke-width:0.5;" x1="167" x2="490" y1="351.4683" y2="351.4683"/><ellipse cx="177" cy="365.2124" fill="#84BE84" rx="3" ry="3" style="stroke:#038048;stroke-width:1.0;"/><text fill="#000000" font-family="sans-serif" font-size="14" lengthAdjust="spacing" textLength="299" x="186" y="369.0034">eventListener(tool: Tool, ev: Event): boolean</text><ellipse cx="177" cy="381.7007" fill="#84BE84" rx="3" ry="3" style="stroke:#038048;stroke-width:1.0;"/><text fill="#000000" font-family="sans-serif" font-size="14" lengthAdjust="spacing" textLength="123" x="186" y="385.4917">grabEvents(): void</text><ellipse cx="177" cy="398.189" fill="#84BE84" rx="3" ry="3" style="stroke:#038048;stroke-width:1.0;"/><text fill="#000000" font-family="sans-serif" font-size="14" lengthAdjust="spacing" textLength="193" x="186" y="401.98">getInstance(): MapToolHook</text></g><!--reverse link Bean to ToolPlugin--><g id="link_Bean_ToolPlugin"><path d="M201.5,110.7183 C201.5,127.7583 201.5,133.3283 201.5,153.3383 " fill="none" id="Bean-backto-ToolPlugin" style="stroke:#181818;stroke-width:1.0;"/><polygon fill="none" points="201.5,92.7183,195.5,110.7183,207.5,110.7183,201.5,92.7183" style="stroke:#181818;stroke-width:1.0;"/></g><!--reverse link ToolPlugin to PointerTool--><g id="link_ToolPlugin_PointerTool"><path d="M159.7492,248.9678 C135.2292,280.6778 112.75,309.7383 92.42,336.0183 " fill="none" id="ToolPlugin-backto-PointerTool" style="stroke:#181818;stroke-width:1.0;stroke-dasharray:7.0,7.0;"/><polygon fill="none" points="170.76,234.7283,155.0027,245.2975,164.4957,252.638,170.76,234.7283" style="stroke:#181818;stroke-width:1.0;"/></g><!--reverse link PointerTool to MeasuringTool--><g id="link_PointerTool_MeasuringTool"><path d="M74.5,402.4483 C74.5,426.3783 74.5,445.4583 74.5,469.4683 " fill="none" id="PointerTool-backto-MeasuringTool" style="stroke:#181818;stroke-width:1.0;"/><polygon fill="none" points="74.5,384.4483,68.5,402.4483,80.5,402.4483,74.5,384.4483" style="stroke:#181818;stroke-width:1.0;"/></g><!--link ToolPlugin to MapToolHook--><g id="link_ToolPlugin_MapToolHook"><path codeLine="20" d="M232.24,234.7283 C250.01,257.6983 272.48,286.7583 291.25,311.0283 " fill="none" id="ToolPlugin-MapToolHook" style="stroke:#181818;stroke-width:1.0;"/><text fill="#000000" font-family="sans-serif" font-size="13" lengthAdjust="spacing" textLength="29" x="265.5" y="278.0366">uses</text></g><!--SRC=[LP31JiCm44Jl_efLJq7G7yWHX0I2Y1pu0ISPebKSk_8wXghYtx5TeYO-xhprp6pWO427J-TCfprzHFZ8-3uenJR0V-aUbCNMB2DRma-07OGUeIrT5ALtFxj5y6Iudp1KY3KrUV0SOSDTJT7nSEKcd5iFaN_g3USTywjKRxG8jQvOPrVY-MGm9qgsAIutk86MnRCT2xx6stvHu5kPHf_o-CMvQIs07EET9Ut2Lo6fTN5xe9np3TcbIMfzNHczxeeWrQxZYF1g9MZR8miRivnYK-5ut2MfAPrCr1y0]--></g></svg>