<?xml version="1.0" encoding="us-ascii" standalone="no"?><svg xmlns="http://www.w3.org/2000/svg" xmlns:xlink="http://www.w3.org/1999/xlink" contentStyleType="text/css" height="763px" preserveAspectRatio="none" style="width:1085px;height:763px;background:#FFFFFF;" version="1.1" viewBox="0 0 1085 763" width="1085px" zoomAndPan="magnify"><defs/><g><text fill="#000000" font-family="sans-serif" font-size="14" font-weight="bold" lengthAdjust="spacing" textLength="143" x="464" y="23.5352">Toolbar - Template</text><!--cluster Utils--><g id="cluster_Utils"><path d="M857.5,514.7283 L892.5,514.7283 A3.75,3.75 0 0 1 895,517.2283 L902,537.2166 L1075.5,537.2166 A2.5,2.5 0 0 1 1078,539.7166 L1078,750.4383 A2.5,2.5 0 0 1 1075.5,752.9383 L857.5,752.9383 A2.5,2.5 0 0 1 855,750.4383 L855,517.2283 A2.5,2.5 0 0 1 857.5,514.7283 " fill="none" style="stroke:#000000;stroke-width:1.5;"/><line style="stroke:#000000;stroke-width:1.5;" x1="855" x2="902" y1="537.2166" y2="537.2166"/><text fill="#000000" font-family="sans-serif" font-size="14" font-weight="bold" lengthAdjust="spacing" textLength="34" x="859" y="530.2634">Utils</text></g><!--cluster Template--><g id="cluster_Template"><path d="M8.5,139.4883 L77.5,139.4883 A3.75,3.75 0 0 1 80,141.9883 L87,161.9766 L828.5,161.9766 A2.5,2.5 0 0 1 831,164.4766 L831,754.4083 A2.5,2.5 0 0 1 828.5,756.9083 L8.5,756.9083 A2.5,2.5 0 0 1 6,754.4083 L6,141.9883 A2.5,2.5 0 0 1 8.5,139.4883 " fill="none" style="stroke:#000000;stroke-width:1.5;"/><line style="stroke:#000000;stroke-width:1.5;" x1="6" x2="87" y1="161.9766" y2="161.9766"/><text fill="#000000" font-family="sans-serif" font-size="14" font-weight="bold" lengthAdjust="spacing" textLength="68" x="10" y="155.0234">Template</text></g><!--cluster Implementation--><g id="cluster_Implementation"><path d="M40.5,498.4883 L225.5,498.4883 A3.75,3.75 0 0 1 228,500.9883 L235,520.9766 L796.5,520.9766 A2.5,2.5 0 0 1 799,523.4766 L799,627.4783 A2.5,2.5 0 0 1 796.5,629.9783 L40.5,629.9783 A2.5,2.5 0 0 1 38,627.4783 L38,500.9883 A2.5,2.5 0 0 1 40.5,498.4883 " fill="none" style="stroke:#000000;stroke-width:1.5;"/><line style="stroke:#000000;stroke-width:1.5;" x1="38" x2="235" y1="520.9766" y2="520.9766"/><text fill="#000000" font-family="sans-serif" font-size="14" font-weight="bold" lengthAdjust="spacing" textLength="184" x="42" y="514.0234">Implementation (D&amp;D 5e)</text></g><!--class PenType--><g id="elem_PenType"><rect codeLine="6" fill="#F1F1F1" height="48" id="PenType" rx="2.5" ry="2.5" style="stroke:#181818;stroke-width:0.5;" width="90" x="871" y="549.7283"/><ellipse cx="886" cy="565.7283" fill="#B4A7E5" rx="11" ry="11" style="stroke:#181818;stroke-width:1.0;"/><path d="M882.4277,561.9934 L882.4277,559.8352 L889.8071,559.8352 L889.8071,561.9934 L887.3418,561.9934 L887.3418,570.0701 L889.8071,570.0701 L889.8071,572.2283 L882.4277,572.2283 L882.4277,570.0701 L884.8931,570.0701 L884.8931,561.9934 Z " fill="#000000"/><text fill="#000000" font-family="sans-serif" font-size="14" font-style="italic" lengthAdjust="spacing" textLength="58" x="900" y="571.0193">PenType</text><line style="stroke:#181818;stroke-width:0.5;" x1="872" x2="960" y1="581.7283" y2="581.7283"/><line style="stroke:#181818;stroke-width:0.5;" x1="872" x2="960" y1="589.7283" y2="589.7283"/></g><!--class Color--><g id="elem_Color"><rect codeLine="7" fill="#F1F1F1" height="48" id="Color" rx="2.5" ry="2.5" style="stroke:#181818;stroke-width:0.5;" width="70" x="871" y="688.9383"/><ellipse cx="886" cy="704.9383" fill="#A9DCDF" rx="11" ry="11" style="stroke:#181818;stroke-width:1.0;"/><path d="M885.8633,700.2864 L884.7095,705.3582 L887.0254,705.3582 Z M884.3691,698.0452 L887.3657,698.0452 L890.7109,710.4383 L888.2622,710.4383 L887.4985,707.3753 L884.2197,707.3753 L883.4727,710.4383 L881.0239,710.4383 Z " fill="#000000"/><text fill="#000000" font-family="sans-serif" font-size="14" font-style="italic" lengthAdjust="spacing" textLength="38" x="900" y="710.2293">Color</text><line style="stroke:#181818;stroke-width:0.5;" x1="872" x2="940" y1="720.9383" y2="720.9383"/><line style="stroke:#181818;stroke-width:0.5;" x1="872" x2="940" y1="728.9383" y2="728.9383"/></g><!--class Texture--><g id="elem_Texture"><rect codeLine="8" fill="#F1F1F1" height="48" id="Texture" rx="2.5" ry="2.5" style="stroke:#181818;stroke-width:0.5;" width="86" x="976" y="688.9383"/><ellipse cx="991" cy="704.9383" fill="#A9DCDF" rx="11" ry="11" style="stroke:#181818;stroke-width:1.0;"/><path d="M990.8633,700.2864 L989.7095,705.3582 L992.0254,705.3582 Z M989.3691,698.0452 L992.3657,698.0452 L995.7109,710.4383 L993.2622,710.4383 L992.4985,707.3753 L989.2197,707.3753 L988.4727,710.4383 L986.0239,710.4383 Z " fill="#000000"/><text fill="#000000" font-family="sans-serif" font-size="14" font-style="italic" lengthAdjust="spacing" textLength="54" x="1005" y="710.2293">Texture</text><line style="stroke:#181818;stroke-width:0.5;" x1="977" x2="1061" y1="720.9383" y2="720.9383"/><line style="stroke:#181818;stroke-width:0.5;" x1="977" x2="1061" y1="728.9383" y2="728.9383"/></g><!--class TemplateTool--><g id="elem_TemplateTool"><rect codeLine="12" fill="#F1F1F1" height="245.8594" id="TemplateTool" rx="2.5" ry="2.5" style="stroke:#181818;stroke-width:0.5;" width="223" x="407.5" y="178.4883"/><ellipse cx="467.25" cy="194.4883" fill="#ADD1B2" rx="11" ry="11" style="stroke:#181818;stroke-width:1.0;"/><path d="M469.7231,200.6313 Q469.1421,200.9302 468.5029,201.0796 Q467.8638,201.229 467.1582,201.229 Q464.6514,201.229 463.3315,199.5771 Q462.0117,197.9253 462.0117,194.8042 Q462.0117,191.6748 463.3315,190.0229 Q464.6514,188.3711 467.1582,188.3711 Q467.8638,188.3711 468.5112,188.5205 Q469.1587,188.6699 469.7231,188.9688 L469.7231,191.6914 Q469.0923,191.1104 468.4988,190.8406 Q467.9053,190.5708 467.2744,190.5708 Q465.9297,190.5708 465.2449,191.6375 Q464.5601,192.7041 464.5601,194.8042 Q464.5601,196.896 465.2449,197.9626 Q465.9297,199.0293 467.2744,199.0293 Q467.9053,199.0293 468.4988,198.7595 Q469.0923,198.4897 469.7231,197.9087 Z " fill="#000000"/><text fill="#000000" font-family="sans-serif" font-size="14" lengthAdjust="spacing" textLength="95" x="487.75" y="199.7793">TemplateTool</text><line style="stroke:#181818;stroke-width:0.5;" x1="408.5" x2="629.5" y1="210.4883" y2="210.4883"/><ellipse cx="418.5" cy="224.2324" fill="#84BE84" rx="3" ry="3" style="stroke:#038048;stroke-width:1.0;"/><text fill="#000000" font-family="sans-serif" font-size="14" lengthAdjust="spacing" textLength="78" x="427.5" y="228.0234">start(): void</text><ellipse cx="418.5" cy="240.7207" fill="#84BE84" rx="3" ry="3" style="stroke:#038048;stroke-width:1.0;"/><text fill="#000000" font-family="sans-serif" font-size="14" lengthAdjust="spacing" textLength="101" x="427.5" y="244.5117">group(): String</text><ellipse cx="418.5" cy="257.209" fill="#84BE84" rx="3" ry="3" style="stroke:#038048;stroke-width:1.0;"/><text fill="#000000" font-family="sans-serif" font-size="14" lengthAdjust="spacing" textLength="104" x="427.5" y="261">tooltip(): String</text><ellipse cx="418.5" cy="273.6973" fill="#84BE84" rx="3" ry="3" style="stroke:#038048;stroke-width:1.0;"/><text fill="#000000" font-family="sans-serif" font-size="14" lengthAdjust="spacing" textLength="122" x="427.5" y="277.4883">statusBar(): String</text><ellipse cx="418.5" cy="290.1855" fill="#84BE84" rx="3" ry="3" style="stroke:#038048;stroke-width:1.0;"/><text fill="#000000" font-family="sans-serif" font-size="14" lengthAdjust="spacing" textLength="117" x="427.5" y="293.9766">helpLink(): String</text><polygon fill="#FFFF44" points="418.5,322.1621,422.5,326.1621,418.5,330.1621,414.5,326.1621" style="stroke:#B38D22;stroke-width:1.0;"/><text fill="#000000" font-family="sans-serif" font-size="14" lengthAdjust="spacing" textLength="173" x="427.5" y="330.9531">showFillPicker(): PenType</text><polygon fill="#FFFF44" points="418.5,338.6504,422.5,342.6504,418.5,346.6504,414.5,342.6504" style="stroke:#B38D22;stroke-width:1.0;"/><text fill="#000000" font-family="sans-serif" font-size="14" lengthAdjust="spacing" textLength="197" x="427.5" y="347.4414">showStrokePicker(): PenType</text><polygon fill="#FFFF44" points="418.5,355.1387,422.5,359.1387,418.5,363.1387,414.5,359.1387" style="stroke:#B38D22;stroke-width:1.0;"/><text fill="#000000" font-family="sans-serif" font-size="14" lengthAdjust="spacing" textLength="162" x="427.5" y="363.9297">setFill(p: PenType): void</text><polygon fill="#FFFF44" points="418.5,371.627,422.5,375.627,418.5,379.627,414.5,375.627" style="stroke:#B38D22;stroke-width:1.0;"/><text fill="#000000" font-family="sans-serif" font-size="14" lengthAdjust="spacing" textLength="186" x="427.5" y="380.418">setStroke(p: PenType): void</text><line style="stroke:#181818;stroke-width:1.0;stroke-dasharray:1.0,2.0;" x1="408.5" x2="436.5" y1="309.1738" y2="309.1738"/><text fill="#000000" font-family="sans-serif" font-size="14" lengthAdjust="spacing" textLength="165" x="436.5" y="313.9648">Palette-related Methods</text><line style="stroke:#181818;stroke-width:1.0;stroke-dasharray:1.0,2.0;" x1="601.5" x2="629.5" y1="309.1738" y2="309.1738"/><polygon fill="#FFFF44" points="418.5,408.6035,422.5,412.6035,418.5,416.6035,414.5,412.6035" style="stroke:#B38D22;stroke-width:1.0;"/><text fill="#000000" font-family="sans-serif" font-size="14" lengthAdjust="spacing" textLength="176" x="427.5" y="417.3945">getCurrentPen(): PenType</text><line style="stroke:#181818;stroke-width:1.0;stroke-dasharray:1.0,2.0;" x1="408.5" x2="433" y1="395.6152" y2="395.6152"/><text fill="#000000" font-family="sans-serif" font-size="14" lengthAdjust="spacing" textLength="172" x="433" y="400.4063">Texture Scaling/Rotating</text><line style="stroke:#181818;stroke-width:1.0;stroke-dasharray:1.0,2.0;" x1="605" x2="629.5" y1="395.6152" y2="395.6152"/></g><g id="elem_GMN12"><path d="M94,280.6783 L94,321.2994 A0,0 0 0 0 94,321.2994 L364,321.2994 A0,0 0 0 0 364,321.2994 L364,304.9883 L399.71,300.9883 L364,296.9883 L364,290.6783 L354,280.6783 L94,280.6783 A0,0 0 0 0 94,280.6783 " fill="#FEFFDD" style="stroke:#181818;stroke-width:0.5;"/><path d="M354,280.6783 L354,290.6783 L364,290.6783 L354,280.6783 " fill="#FEFFDD" style="stroke:#181818;stroke-width:0.5;"/><text fill="#000000" font-family="sans-serif" font-size="13" lengthAdjust="spacing" textLength="210" x="100" y="298.2466">looks like an almost identical API</text><text fill="#000000" font-family="sans-serif" font-size="13" lengthAdjust="spacing" textLength="79" x="100" y="313.5572">compared to</text><text fill="#000000" font-family="monospace" font-size="13" lengthAdjust="spacing" textLength="88" x="183" y="313.2335">DrawingTool</text><text fill="#000000" font-family="sans-serif" font-size="13" lengthAdjust="spacing" textLength="74" x="275" y="313.5572">-- refactor?</text></g><g id="elem_GMN25"><path d="M22,684.9783 L22,740.9099 L354,740.9099 L354,694.9783 L344,684.9783 L22,684.9783 " fill="#FEFFDD" style="stroke:#181818;stroke-width:0.5;"/><path d="M344,684.9783 L344,694.9783 L354,694.9783 L344,684.9783 " fill="#FEFFDD" style="stroke:#181818;stroke-width:1.0;"/><text fill="#000000" font-family="sans-serif" font-size="13" lengthAdjust="spacing" textLength="164" x="28" y="702.5466">may be useful to subclass</text><text fill="#000000" font-family="monospace" font-size="13" lengthAdjust="spacing" textLength="96" x="196" y="702.2229">TemplateTool</text><text fill="#000000" font-family="sans-serif" font-size="13" lengthAdjust="spacing" textLength="43" x="296" y="702.5466">to give</text><text fill="#000000" font-family="sans-serif" font-size="13" lengthAdjust="spacing" textLength="242" x="28" y="717.8572">all "D&amp;D 5e" a single superclass, since</text><text fill="#000000" font-family="monospace" font-size="13" lengthAdjust="spacing" textLength="56" x="274" y="717.5335">group()</text><text fill="#000000" font-family="sans-serif" font-size="13" lengthAdjust="spacing" textLength="232" x="28" y="733.1677">and similar methods will be identical</text></g><!--class ConeTool--><g id="elem_ConeTool"><rect codeLine="35" fill="#F1F1F1" height="64.4883" id="ConeTool" rx="2.5" ry="2.5" style="stroke:#181818;stroke-width:0.5;" width="147" x="81.5" y="541.4883"/><ellipse cx="118.1" cy="557.4883" fill="#ADD1B2" rx="11" ry="11" style="stroke:#181818;stroke-width:1.0;"/><path d="M120.5731,563.6313 Q119.9921,563.9302 119.3529,564.0796 Q118.7138,564.229 118.0082,564.229 Q115.5014,564.229 114.1815,562.5771 Q112.8617,560.9253 112.8617,557.8042 Q112.8617,554.6748 114.1815,553.0229 Q115.5014,551.3711 118.0082,551.3711 Q118.7138,551.3711 119.3612,551.5205 Q120.0087,551.6699 120.5731,551.9688 L120.5731,554.6914 Q119.9423,554.1104 119.3488,553.8406 Q118.7553,553.5708 118.1244,553.5708 Q116.7797,553.5708 116.0949,554.6375 Q115.4101,555.7041 115.4101,557.8042 Q115.4101,559.896 116.0949,560.9626 Q116.7797,562.0293 118.1244,562.0293 Q118.7553,562.0293 119.3488,561.7595 Q119.9423,561.4897 120.5731,560.9087 Z " fill="#000000"/><text fill="#000000" font-family="sans-serif" font-size="14" lengthAdjust="spacing" textLength="67" x="136.9" y="562.7793">ConeTool</text><line style="stroke:#181818;stroke-width:0.5;" x1="82.5" x2="227.5" y1="573.4883" y2="573.4883"/><line style="stroke:#181818;stroke-width:0.5;" x1="82.5" x2="227.5" y1="581.4883" y2="581.4883"/><ellipse cx="92.5" cy="595.2324" fill="#84BE84" rx="3" ry="3" style="stroke:#038048;stroke-width:1.0;"/><text fill="#000000" font-family="sans-serif" font-size="14" lengthAdjust="spacing" textLength="121" x="101.5" y="599.0234">group(): "D&amp;D 5e"</text></g><!--class CircleTool--><g id="elem_CircleTool"><rect codeLine="39" fill="#F1F1F1" height="64.4883" id="CircleTool" rx="2.5" ry="2.5" style="stroke:#181818;stroke-width:0.5;" width="147" x="263.5" y="541.4883"/><ellipse cx="298.75" cy="557.4883" fill="#ADD1B2" rx="11" ry="11" style="stroke:#181818;stroke-width:1.0;"/><path d="M301.2231,563.6313 Q300.6421,563.9302 300.0029,564.0796 Q299.3638,564.229 298.6582,564.229 Q296.1514,564.229 294.8315,562.5771 Q293.5117,560.9253 293.5117,557.8042 Q293.5117,554.6748 294.8315,553.0229 Q296.1514,551.3711 298.6582,551.3711 Q299.3638,551.3711 300.0112,551.5205 Q300.6587,551.6699 301.2231,551.9688 L301.2231,554.6914 Q300.5923,554.1104 299.9988,553.8406 Q299.4053,553.5708 298.7744,553.5708 Q297.4297,553.5708 296.7449,554.6375 Q296.0601,555.7041 296.0601,557.8042 Q296.0601,559.896 296.7449,560.9626 Q297.4297,562.0293 298.7744,562.0293 Q299.4053,562.0293 299.9988,561.7595 Q300.5923,561.4897 301.2231,560.9087 Z " fill="#000000"/><text fill="#000000" font-family="sans-serif" font-size="14" lengthAdjust="spacing" textLength="70" x="317.25" y="562.7793">CircleTool</text><line style="stroke:#181818;stroke-width:0.5;" x1="264.5" x2="409.5" y1="573.4883" y2="573.4883"/><line style="stroke:#181818;stroke-width:0.5;" x1="264.5" x2="409.5" y1="581.4883" y2="581.4883"/><ellipse cx="274.5" cy="595.2324" fill="#84BE84" rx="3" ry="3" style="stroke:#038048;stroke-width:1.0;"/><text fill="#000000" font-family="sans-serif" font-size="14" lengthAdjust="spacing" textLength="121" x="283.5" y="599.0234">group(): "D&amp;D 5e"</text></g><!--class RectangleTool--><g id="elem_RectangleTool"><rect codeLine="43" fill="#F1F1F1" height="64.4883" id="RectangleTool" rx="2.5" ry="2.5" style="stroke:#181818;stroke-width:0.5;" width="147" x="445.5" y="541.4883"/><ellipse cx="468.15" cy="557.4883" fill="#ADD1B2" rx="11" ry="11" style="stroke:#181818;stroke-width:1.0;"/><path d="M470.6231,563.6313 Q470.0421,563.9302 469.4029,564.0796 Q468.7638,564.229 468.0582,564.229 Q465.5514,564.229 464.2315,562.5771 Q462.9117,560.9253 462.9117,557.8042 Q462.9117,554.6748 464.2315,553.0229 Q465.5514,551.3711 468.0582,551.3711 Q468.7638,551.3711 469.4112,551.5205 Q470.0587,551.6699 470.6231,551.9688 L470.6231,554.6914 Q469.9923,554.1104 469.3988,553.8406 Q468.8053,553.5708 468.1744,553.5708 Q466.8297,553.5708 466.1449,554.6375 Q465.4601,555.7041 465.4601,557.8042 Q465.4601,559.896 466.1449,560.9626 Q466.8297,562.0293 468.1744,562.0293 Q468.8053,562.0293 469.3988,561.7595 Q469.9923,561.4897 470.6231,560.9087 Z " fill="#000000"/><text fill="#000000" font-family="sans-serif" font-size="14" lengthAdjust="spacing" textLength="98" x="483.85" y="562.7793">RectangleTool</text><line style="stroke:#181818;stroke-width:0.5;" x1="446.5" x2="591.5" y1="573.4883" y2="573.4883"/><line style="stroke:#181818;stroke-width:0.5;" x1="446.5" x2="591.5" y1="581.4883" y2="581.4883"/><ellipse cx="456.5" cy="595.2324" fill="#84BE84" rx="3" ry="3" style="stroke:#038048;stroke-width:1.0;"/><text fill="#000000" font-family="sans-serif" font-size="14" lengthAdjust="spacing" textLength="121" x="465.5" y="599.0234">group(): "D&amp;D 5e"</text></g><!--class LineTool--><g id="elem_LineTool"><rect codeLine="47" fill="#F1F1F1" height="64.4883" id="LineTool" rx="2.5" ry="2.5" style="stroke:#181818;stroke-width:0.5;" width="147" x="627.5" y="541.4883"/><ellipse cx="667.7" cy="557.4883" fill="#ADD1B2" rx="11" ry="11" style="stroke:#181818;stroke-width:1.0;"/><path d="M670.1731,563.6313 Q669.5921,563.9302 668.9529,564.0796 Q668.3138,564.229 667.6082,564.229 Q665.1014,564.229 663.7815,562.5771 Q662.4617,560.9253 662.4617,557.8042 Q662.4617,554.6748 663.7815,553.0229 Q665.1014,551.3711 667.6082,551.3711 Q668.3138,551.3711 668.9612,551.5205 Q669.6087,551.6699 670.1731,551.9688 L670.1731,554.6914 Q669.5423,554.1104 668.9488,553.8406 Q668.3553,553.5708 667.7244,553.5708 Q666.3797,553.5708 665.6949,554.6375 Q665.0101,555.7041 665.0101,557.8042 Q665.0101,559.896 665.6949,560.9626 Q666.3797,562.0293 667.7244,562.0293 Q668.3553,562.0293 668.9488,561.7595 Q669.5423,561.4897 670.1731,560.9087 Z " fill="#000000"/><text fill="#000000" font-family="sans-serif" font-size="14" lengthAdjust="spacing" textLength="59" x="687.3" y="562.7793">LineTool</text><line style="stroke:#181818;stroke-width:0.5;" x1="628.5" x2="773.5" y1="573.4883" y2="573.4883"/><line style="stroke:#181818;stroke-width:0.5;" x1="628.5" x2="773.5" y1="581.4883" y2="581.4883"/><ellipse cx="638.5" cy="595.2324" fill="#84BE84" rx="3" ry="3" style="stroke:#038048;stroke-width:1.0;"/><text fill="#000000" font-family="sans-serif" font-size="14" lengthAdjust="spacing" textLength="121" x="647.5" y="599.0234">group(): "D&amp;D 5e"</text></g><!--class ToolPlugin--><g id="elem_ToolPlugin"><rect codeLine="3" fill="#F1F1F1" height="48" id="ToolPlugin" rx="2.5" ry="2.5" style="stroke:#181818;stroke-width:0.5;" width="106" x="466" y="44.4883"/><ellipse cx="481" cy="60.4883" fill="#B4A7E5" rx="11" ry="11" style="stroke:#181818;stroke-width:1.0;"/><path d="M477.4277,56.7534 L477.4277,54.5952 L484.8071,54.5952 L484.8071,56.7534 L482.3418,56.7534 L482.3418,64.8301 L484.8071,64.8301 L484.8071,66.9883 L477.4277,66.9883 L477.4277,64.8301 L479.8931,64.8301 L479.8931,56.7534 Z " fill="#000000"/><text fill="#000000" font-family="sans-serif" font-size="14" font-style="italic" lengthAdjust="spacing" textLength="74" x="495" y="65.7793">ToolPlugin</text><line style="stroke:#181818;stroke-width:0.5;" x1="467" x2="571" y1="76.4883" y2="76.4883"/><line style="stroke:#181818;stroke-width:0.5;" x1="467" x2="571" y1="84.4883" y2="84.4883"/></g><!--reverse link PenType to Color--><g id="link_PenType_Color"><path d="M912.9908,615.9606 C911.1508,641.1906 909.55,663.2783 907.7,688.5483 " fill="none" id="PenType-backto-Color" style="stroke:#181818;stroke-width:1.0;stroke-dasharray:7.0,7.0;"/><polygon fill="none" points="914.3,598.0083,907.0066,615.5242,918.9749,616.397,914.3,598.0083" style="stroke:#181818;stroke-width:1.0;"/></g><!--reverse link PenType to Texture--><g id="link_PenType_Texture"><path d="M944.2764,612.4035 C963.2164,637.6335 982.47,663.2783 1001.44,688.5483 " fill="none" id="PenType-backto-Texture" style="stroke:#181818;stroke-width:1.0;stroke-dasharray:7.0,7.0;"/><polygon fill="none" points="933.47,598.0083,939.478,616.0056,949.0748,608.8014,933.47,598.0083" style="stroke:#181818;stroke-width:1.0;"/></g><!--reverse link ToolPlugin to TemplateTool--><g id="link_ToolPlugin_TemplateTool"><path d="M519,110.8583 C519,130.8283 519,143.2483 519,174.6683 " fill="none" id="ToolPlugin-backto-TemplateTool" style="stroke:#181818;stroke-width:1.0;stroke-dasharray:7.0,7.0;"/><polygon fill="none" points="519,92.8583,513,110.8583,525,110.8583,519,92.8583" style="stroke:#181818;stroke-width:1.0;"/></g><!--link TemplateTool to PenType--><g id="link_TemplateTool_PenType"><path codeLine="32" d="M632,324.9883 C767.77,324.9883 870.03,487.7483 903.9,549.4283 " fill="none" id="TemplateTool-PenType" style="stroke:#181818;stroke-width:1.0;"/><text fill="#000000" font-family="sans-serif" font-size="13" lengthAdjust="spacing" textLength="29" x="854" y="471.0566">uses</text></g><!--reverse link TemplateTool to ConeTool--><g id="link_TemplateTool_ConeTool"><path d="M385.2053,425.2937 C378.9853,429.7837 387.3,423.5183 381,427.4883 C326.19,462.0383 300.05,446.7683 246,482.4883 C221.5,498.6783 198.07,522.1683 181.12,541.1283 " fill="none" id="TemplateTool-backto-ConeTool" style="stroke:#181818;stroke-width:1.0;stroke-dasharray:7.0,7.0;"/><polygon fill="none" points="399.8,414.7583,381.6935,420.4288,388.7171,430.1586,399.8,414.7583" style="stroke:#181818;stroke-width:1.0;"/></g><!--reverse link TemplateTool to CircleTool--><g id="link_TemplateTool_CircleTool"><path d="M424.6173,442.3963 C396.3473,484.4463 377.26,512.8383 358.26,541.1083 " fill="none" id="TemplateTool-backto-CircleTool" style="stroke:#181818;stroke-width:1.0;stroke-dasharray:7.0,7.0;"/><polygon fill="none" points="434.66,427.4583,419.6379,439.0487,429.5966,445.7438,434.66,427.4583" style="stroke:#181818;stroke-width:1.0;"/></g><!--reverse link TemplateTool to RectangleTool--><g id="link_TemplateTool_RectangleTool"><path d="M519,445.4583 C519,487.5083 519,512.8383 519,541.1083 " fill="none" id="TemplateTool-backto-RectangleTool" style="stroke:#181818;stroke-width:1.0;stroke-dasharray:7.0,7.0;"/><polygon fill="none" points="519,427.4583,513,445.4583,525,445.4583,519,427.4583" style="stroke:#181818;stroke-width:1.0;"/></g><!--reverse link TemplateTool to LineTool--><g id="link_TemplateTool_LineTool"><path d="M613.3827,442.3963 C641.6527,484.4463 660.74,512.8383 679.74,541.1083 " fill="none" id="TemplateTool-backto-LineTool" style="stroke:#181818;stroke-width:1.0;stroke-dasharray:7.0,7.0;"/><polygon fill="none" points="603.34,427.4583,608.4034,445.7438,618.3621,439.0487,603.34,427.4583" style="stroke:#181818;stroke-width:1.0;"/></g><!--link Implementation to GMN25--><g id="link_Implementation_GMN25"><path d="M55.7767,630.0544 C55.8263,630.171 55.8761,630.2874 55.9261,630.4038 C56.7266,632.2656 57.5912,634.0982 58.5251,635.887 C60.3928,639.4645 62.5375,642.867 65,645.9783 C77.78,662.1283 95.64,674.8283 113.79,684.5783 " fill="none" id="Implementation-GMN25" style="stroke:#181818;stroke-width:1.0;stroke-dasharray:7.0,7.0;"/></g><!--SRC=[jLHDRzim3BtxLn0QCAJOufrsoMNO6Wmei051c_q0ncOSmR9aI7IpOkX_7-NlU45Egoy9oCV79_99hDaGgBrpve0Urh2dgZR8f994MoP_n8mWfdUcARHDaXgp4Wk2NwnDW3y9o3SXTsJtBpMrKJm4zfWnP0P3W7jdd0Sjz5IHvN0BkwVVt7YwXdwT90nQUnL3QHUCckVrwNI87X-_3u7Hy-fk0yzEvrEuyAwfO_Y9lRR5b61XONqr9LJSX6_ehoLFPEeVsfPNSccwGqFCjFOKbUVma_Zayf2c8-PTEBdpTstCJcSbjHtcuniXGkrAkWKYZZIhUimjpnuX7SqDK9eEAthAqCXfFZqwERxycOikYEyRxsN-GhEK8ukCFzR90WqT6TpnOdazZN6k361qIO0Mq5GkCEXSEBLqXg-xXnwOkQf6BzDZ1qfjFPv5JIHI2jPhy2G6PUU_j72oUTkvqp1lkzbSZZhMfgtPqruzRA095BhIfHVJXy5oCWqdWWEeHMYrVR-5ptIdPZuSheZznxSZyOMnfyfBkwgEMutfVigp7jfdvisxF5B6Q8ktRoHtwl_tMDhpu9XTDJVeOirzROKlSA3eZcDZeWz3S-XaAZNN8ewKPA6VXuk9nemw027eE3gfhictzHzZI9vNfNhPQf2BOkIWAstazQwwPmFEOjweOxmbbvP_JVu2]--></g></svg>