<?xml version="1.0" encoding="us-ascii" standalone="no"?><svg xmlns="http://www.w3.org/2000/svg" xmlns:xlink="http://www.w3.org/1999/xlink" contentStyleType="text/css" height="619px" preserveAspectRatio="none" style="width:917px;height:619px;background:#FFFFFF;" version="1.1" viewBox="0 0 917 619" width="917px" zoomAndPan="magnify"><defs/><g><text fill="#000000" font-family="sans-serif" font-size="14" font-weight="bold" lengthAdjust="spacing" textLength="128" x="387.75" y="23.5352">Toolbar Overview</text><!--class ToolPlugin--><g id="elem_ToolPlugin"><rect codeLine="3" fill="#F1F1F1" height="159.418" id="ToolPlugin" rx="2.5" ry="2.5" style="stroke:#181818;stroke-width:0.5;" width="396" x="413" y="153.4883"/><ellipse cx="569.75" cy="169.4883" fill="#B4A7E5" rx="11" ry="11" style="stroke:#181818;stroke-width:1.0;"/><path d="M566.1777,165.7534 L566.1777,163.5952 L573.5571,163.5952 L573.5571,165.7534 L571.0918,165.7534 L571.0918,173.8301 L573.5571,173.8301 L573.5571,175.9883 L566.1777,175.9883 L566.1777,173.8301 L568.6431,173.8301 L568.6431,165.7534 Z " fill="#000000"/><text fill="#000000" font-family="sans-serif" font-size="14" font-style="italic" lengthAdjust="spacing" textLength="74" x="590.25" y="174.7793">ToolPlugin</text><line style="stroke:#181818;stroke-width:0.5;" x1="414" x2="808" y1="185.4883" y2="185.4883"/><ellipse cx="424" cy="199.2324" fill="#84BE84" rx="3" ry="3" style="stroke:#038048;stroke-width:1.0;"/><text fill="#000000" font-family="sans-serif" font-size="14" lengthAdjust="spacing" textLength="347" x="433" y="203.0234">start(l: Layer, z: Zone, g: Grid, t: Token = null): void</text><ellipse cx="424" cy="215.7207" fill="#84BE84" rx="3" ry="3" style="stroke:#038048;stroke-width:1.0;"/><text fill="#000000" font-family="sans-serif" font-size="14" lengthAdjust="spacing" textLength="129" x="433" y="219.5117">clone(): ToolPlugin</text><ellipse cx="424" cy="252.6973" fill="#84BE84" rx="3" ry="3" style="stroke:#038048;stroke-width:1.0;"/><text fill="#000000" font-family="sans-serif" font-size="14" lengthAdjust="spacing" text-decoration="underline" textLength="370" x="433" y="256.4883">_registerShortcuts(keys: Map&lt;String, Function&gt;): void</text><ellipse cx="424" cy="269.1855" fill="#84BE84" rx="3" ry="3" style="stroke:#038048;stroke-width:1.0;"/><text fill="#000000" font-family="sans-serif" font-size="14" lengthAdjust="spacing" text-decoration="underline" textLength="213" x="433" y="272.9766">_registerMouseListeners(): void</text><ellipse cx="424" cy="285.6738" fill="#84BE84" rx="3" ry="3" style="stroke:#038048;stroke-width:1.0;"/><text fill="#000000" font-family="sans-serif" font-size="14" lengthAdjust="spacing" text-decoration="underline" textLength="192" x="433" y="289.4648">_registerKeyListeners(): void</text><text fill="#000000" font-family="sans-serif" font-size="14" lengthAdjust="spacing" textLength="225" x="433" y="305.9531">other functions that interact with</text><text fill="#000000" font-family="monospace" font-size="14" lengthAdjust="spacing" textLength="88" x="662" y="305.6045">MapToolHook</text><text fill="#000000" font-family="sans-serif" font-size="14" lengthAdjust="spacing" textLength="12" x="750" y="305.9531">...</text><line style="stroke:#181818;stroke-width:1.0;stroke-dasharray:1.0,2.0;" x1="414" x2="561" y1="234.709" y2="234.709"/><text fill="#000000" font-family="sans-serif" font-size="14" lengthAdjust="spacing" textLength="100" x="561" y="239.5">Static Methods</text><line style="stroke:#181818;stroke-width:1.0;stroke-dasharray:1.0,2.0;" x1="661" x2="808" y1="234.709" y2="234.709"/></g><!--class Bean--><g id="elem_Bean"><rect fill="#F1F1F1" height="48" id="Bean" rx="2.5" ry="2.5" style="stroke:#181818;stroke-width:0.5;" width="65" x="578.5" y="44.4883"/><ellipse cx="593.5" cy="60.4883" fill="#B4A7E5" rx="11" ry="11" style="stroke:#181818;stroke-width:1.0;"/><path d="M589.9277,56.7534 L589.9277,54.5952 L597.3071,54.5952 L597.3071,56.7534 L594.8418,56.7534 L594.8418,64.8301 L597.3071,64.8301 L597.3071,66.9883 L589.9277,66.9883 L589.9277,64.8301 L592.3931,64.8301 L592.3931,56.7534 Z " fill="#000000"/><text fill="#000000" font-family="sans-serif" font-size="14" font-style="italic" lengthAdjust="spacing" textLength="33" x="607.5" y="65.7793">Bean</text><line style="stroke:#181818;stroke-width:0.5;" x1="579.5" x2="642.5" y1="76.4883" y2="76.4883"/><line style="stroke:#181818;stroke-width:0.5;" x1="579.5" x2="642.5" y1="84.4883" y2="84.4883"/></g><path d="M6,200.2283 L6,256.1599 A0,0 0 0 0 6,256.1599 L378,256.1599 A0,0 0 0 0 378,256.1599 L378,232.1941 L417,197.7324 L378,224.1941 L378,210.2283 L368,200.2283 L6,200.2283 A0,0 0 0 0 6,200.2283 " fill="#FEFFDD" style="stroke:#181818;stroke-width:0.5;"/><path d="M368,200.2283 L368,210.2283 L378,210.2283 L368,200.2283 " fill="#FEFFDD" style="stroke:#181818;stroke-width:0.5;"/><text fill="#000000" font-family="sans-serif" font-size="13" lengthAdjust="spacing" textLength="333" x="12" y="217.7966">delegates parts of the initialization to other methods</text><text fill="#000000" font-family="sans-serif" font-size="13" lengthAdjust="spacing" textLength="24" x="12" y="233.1072">(the</text><text fill="#000000" font-family="monospace" font-size="13" lengthAdjust="spacing" textLength="96" x="40" y="232.7835">_register*()</text><text fill="#000000" font-family="sans-serif" font-size="13" lengthAdjust="spacing" textLength="192" x="140" y="233.1072">methods) so that pieces of the</text><text fill="#000000" font-family="sans-serif" font-size="13" lengthAdjust="spacing" textLength="351" x="12" y="248.4177">startup can be overridden without overriding everything</text><!--class PointerTool--><g id="elem_PointerTool"><rect codeLine="19" fill="#F1F1F1" height="64.4883" id="PointerTool" rx="2.5" ry="2.5" style="stroke:#181818;stroke-width:0.5;" width="373" x="135.5" y="406.3983"/><ellipse cx="277.75" cy="422.3983" fill="#ADD1B2" rx="11" ry="11" style="stroke:#181818;stroke-width:1.0;"/><path d="M280.2231,428.5413 Q279.6421,428.8402 279.0029,428.9896 Q278.3638,429.139 277.6582,429.139 Q275.1514,429.139 273.8315,427.4871 Q272.5117,425.8353 272.5117,422.7142 Q272.5117,419.5848 273.8315,417.9329 Q275.1514,416.2811 277.6582,416.2811 Q278.3638,416.2811 279.0112,416.4305 Q279.6587,416.5799 280.2231,416.8787 L280.2231,419.6014 Q279.5923,419.0204 278.9988,418.7506 Q278.4053,418.4808 277.7744,418.4808 Q276.4297,418.4808 275.7449,419.5475 Q275.0601,420.6141 275.0601,422.7142 Q275.0601,424.806 275.7449,425.8726 Q276.4297,426.9393 277.7744,426.9393 Q278.4053,426.9393 278.9988,426.6695 Q279.5923,426.3997 280.2231,425.8187 Z " fill="#000000"/><text fill="#000000" font-family="sans-serif" font-size="14" lengthAdjust="spacing" textLength="80" x="298.25" y="427.6893">PointerTool</text><line style="stroke:#181818;stroke-width:0.5;" x1="136.5" x2="507.5" y1="438.3983" y2="438.3983"/><line style="stroke:#181818;stroke-width:0.5;" x1="136.5" x2="507.5" y1="446.3983" y2="446.3983"/><ellipse cx="146.5" cy="460.1424" fill="#84BE84" rx="3" ry="3" style="stroke:#038048;stroke-width:1.0;"/><text fill="#000000" font-family="sans-serif" font-size="14" lengthAdjust="spacing" textLength="347" x="155.5" y="463.9334">start(l: Layer, z: Zone, g: Grid, t: Token = null): void</text></g><!--class MeasuringTool--><g id="elem_MeasuringTool"><rect codeLine="23" fill="#F1F1F1" height="64.4883" id="MeasuringTool" rx="2.5" ry="2.5" style="stroke:#181818;stroke-width:0.5;" width="373" x="135.5" y="548.3683"/><ellipse cx="266.25" cy="564.3683" fill="#ADD1B2" rx="11" ry="11" style="stroke:#181818;stroke-width:1.0;"/><path d="M268.7231,570.5113 Q268.1421,570.8102 267.5029,570.9596 Q266.8638,571.109 266.1582,571.109 Q263.6514,571.109 262.3315,569.4571 Q261.0117,567.8053 261.0117,564.6842 Q261.0117,561.5548 262.3315,559.9029 Q263.6514,558.2511 266.1582,558.2511 Q266.8638,558.2511 267.5112,558.4005 Q268.1587,558.5499 268.7231,558.8488 L268.7231,561.5714 Q268.0923,560.9904 267.4988,560.7206 Q266.9053,560.4508 266.2744,560.4508 Q264.9297,560.4508 264.2449,561.5175 Q263.5601,562.5841 263.5601,564.6842 Q263.5601,566.776 264.2449,567.8426 Q264.9297,568.9093 266.2744,568.9093 Q266.9053,568.9093 267.4988,568.6395 Q268.0923,568.3697 268.7231,567.7887 Z " fill="#000000"/><text fill="#000000" font-family="sans-serif" font-size="14" lengthAdjust="spacing" textLength="103" x="286.75" y="569.6593">MeasuringTool</text><line style="stroke:#181818;stroke-width:0.5;" x1="136.5" x2="507.5" y1="580.3683" y2="580.3683"/><line style="stroke:#181818;stroke-width:0.5;" x1="136.5" x2="507.5" y1="588.3683" y2="588.3683"/><ellipse cx="146.5" cy="602.1124" fill="#84BE84" rx="3" ry="3" style="stroke:#038048;stroke-width:1.0;"/><text fill="#000000" font-family="sans-serif" font-size="14" lengthAdjust="spacing" textLength="347" x="155.5" y="605.9034">start(l: Layer, z: Zone, g: Grid, t: Token = null): void</text></g><!--class MapToolHook--><g id="elem_MapToolHook"><rect codeLine="27" fill="#F1F1F1" height="97.4648" id="MapToolHook" rx="2.5" ry="2.5" style="stroke:#181818;stroke-width:0.5;" width="367" x="543.5" y="389.9083"/><ellipse cx="674.75" cy="405.9083" fill="#B4A7E5" rx="11" ry="11" style="stroke:#181818;stroke-width:1.0;"/><path d="M671.1777,402.1734 L671.1777,400.0152 L678.5571,400.0152 L678.5571,402.1734 L676.0918,402.1734 L676.0918,410.2501 L678.5571,410.2501 L678.5571,412.4083 L671.1777,412.4083 L671.1777,410.2501 L673.6431,410.2501 L673.6431,402.1734 Z " fill="#000000"/><text fill="#000000" font-family="sans-serif" font-size="14" font-style="italic" lengthAdjust="spacing" textLength="96" x="695.25" y="411.1993">MapToolHook</text><line style="stroke:#181818;stroke-width:0.5;" x1="544.5" x2="909.5" y1="421.9083" y2="421.9083"/><line style="stroke:#181818;stroke-width:0.5;" x1="544.5" x2="909.5" y1="429.9083" y2="429.9083"/><ellipse cx="554.5" cy="443.6524" fill="#84BE84" rx="3" ry="3" style="stroke:#038048;stroke-width:1.0;"/><text fill="#000000" font-family="sans-serif" font-size="14" lengthAdjust="spacing" textLength="193" x="563.5" y="447.4434">getInstance(): MapToolHook</text><ellipse cx="554.5" cy="460.1407" fill="#84BE84" rx="3" ry="3" style="stroke:#038048;stroke-width:1.0;"/><text fill="#000000" font-family="sans-serif" font-size="14" lengthAdjust="spacing" textLength="341" x="563.5" y="463.9317">addEventListener(tool: ToolPlugin, ev: Event): void</text><ellipse cx="554.5" cy="476.629" fill="#84BE84" rx="3" ry="3" style="stroke:#038048;stroke-width:1.0;"/><text fill="#000000" font-family="sans-serif" font-size="14" lengthAdjust="spacing" textLength="284" x="563.5" y="480.42">fireEvent(tool: ToolPlugin, ev: Event): void</text></g><!--reverse link Bean to ToolPlugin--><g id="link_Bean_ToolPlugin"><path d="M611,110.7983 C611,126.7883 611,131.0283 611,153.0483 " fill="none" id="Bean-backto-ToolPlugin" style="stroke:#181818;stroke-width:1.0;"/><polygon fill="none" points="611,92.7983,605,110.7983,617,110.7983,611,92.7983" style="stroke:#181818;stroke-width:1.0;"/></g><!--reverse link ToolPlugin to PointerTool--><g id="link_ToolPlugin_PointerTool"><path d="M484.1329,323.502 C438.1229,355.902 402.21,381.1683 366.96,405.9883 " fill="none" id="ToolPlugin-backto-PointerTool" style="stroke:#181818;stroke-width:1.0;stroke-dasharray:7.0,7.0;"/><polygon fill="none" points="498.85,313.1383,480.6783,318.5963,487.5875,328.4077,498.85,313.1383" style="stroke:#181818;stroke-width:1.0;"/></g><!--reverse link PointerTool to MeasuringTool--><g id="link_PointerTool_MeasuringTool"><path d="M322,489.0483 C322,512.1083 322,525.2783 322,548.3083 " fill="none" id="PointerTool-backto-MeasuringTool" style="stroke:#181818;stroke-width:1.0;"/><polygon fill="none" points="322,471.0483,316,489.0483,328,489.0483,322,471.0483" style="stroke:#181818;stroke-width:1.0;"/></g><!--link ToolPlugin to MapToolHook--><g id="link_ToolPlugin_MapToolHook"><path codeLine="33" d="M656.01,313.1383 C670.73,338.9483 686.61,366.8083 699.62,389.6183 " fill="none" id="ToolPlugin-MapToolHook" style="stroke:#181818;stroke-width:1.0;"/><text fill="#000000" font-family="sans-serif" font-size="13" lengthAdjust="spacing" textLength="29" x="680" y="356.4766">uses</text></g><!--SRC=[hLF1ZjGm3BtdAwoSEj3j1qJ00Oa5n8vOQJXnGTdKRQF995NYpZAxcd_7IRVGaLO2YUqfif_zdkrNikGGvBSGt9sEyFM8yMZnNWfXFM7ij478oLitzTO3_YJqROBtg3qy2k3lTI8TgN8ARlG9OmqF2hu7ZpNq2Zv6szP0YdliqSDRy9Dp6mN7ODkvsZZ6LXkrOYc9fjcH9cjWYpI4DZNDZ8V7LE9d-16njub5xeOGoKoKgZsUaeAj7j_iA5hVrt0zUKCs-7SNfCyqsOOfuKr-Ueof-Xly2vwU1mSQC4BtH9k01arGTgaDmRsb0QHaXNdSJo7ifMnujBCGFX22muuWTAjbA5NsoxrRTDXhmWGZ1rA6CHVtjcIrimyw4mA59mc7UMzSM6MObB-rlwesKYxv3QGmYnmj6bpQSbdXdKOmVEexXC3Mu6ksVCOyHPXe2V6Y0Vbvee6VWWq2UHWXZDCfmMqeu-UHm1v6XmVqB7_bglyrqdcXsg9EKpvy8LlCkXRm0bH_VepL6PV6FT9dpzszAQPU8UQyRjiFHvv_CKz5d5wRl-PLAYYO2mzsDcA9_ai5grojz-hgGga2TdeIlm00]--></g></svg>