<?xml version="1.0" encoding="us-ascii" standalone="no"?><svg xmlns="http://www.w3.org/2000/svg" xmlns:xlink="http://www.w3.org/1999/xlink" contentStyleType="text/css" height="714px" preserveAspectRatio="none" style="width:993px;height:714px;background:#FFFFFF;" version="1.1" viewBox="0 0 993 714" width="993px" zoomAndPan="magnify"><defs/><g><text fill="#000000" font-family="sans-serif" font-size="14" font-weight="bold" lengthAdjust="spacing" textLength="135" x="422" y="23.5352">Toolbar - Drawing</text><!--cluster Utils--><g id="cluster_Utils"><path d="M659.5,424.4883 L694.5,424.4883 A3.75,3.75 0 0 1 697,426.9883 L704,446.9766 L983.5,446.9766 A2.5,2.5 0 0 1 986,449.4766 L986,705.4483 A2.5,2.5 0 0 1 983.5,707.9483 L659.5,707.9483 A2.5,2.5 0 0 1 657,705.4483 L657,426.9883 A2.5,2.5 0 0 1 659.5,424.4883 " fill="none" style="stroke:#000000;stroke-width:1.5;"/><line style="stroke:#000000;stroke-width:1.5;" x1="657" x2="704" y1="446.9766" y2="446.9766"/><text fill="#000000" font-family="sans-serif" font-size="14" font-weight="bold" lengthAdjust="spacing" textLength="34" x="661" y="440.0234">Utils</text></g><!--cluster Drawing--><g id="cluster_Drawing"><path d="M8.5,139.4883 L69.5,139.4883 A3.75,3.75 0 0 1 72,141.9883 L79,161.9766 L630.5,161.9766 A2.5,2.5 0 0 1 633,164.4766 L633,561.4683 A2.5,2.5 0 0 1 630.5,563.9683 L8.5,563.9683 A2.5,2.5 0 0 1 6,561.4683 L6,141.9883 A2.5,2.5 0 0 1 8.5,139.4883 " fill="none" style="stroke:#000000;stroke-width:1.5;"/><line style="stroke:#000000;stroke-width:1.5;" x1="6" x2="79" y1="161.9766" y2="161.9766"/><text fill="#000000" font-family="sans-serif" font-size="14" font-weight="bold" lengthAdjust="spacing" textLength="60" x="10" y="155.0234">Drawing</text></g><!--cluster Implementation--><g id="cluster_Implementation"><path d="M32.5,440.9683 L206.5,440.9683 A3.75,3.75 0 0 1 209,443.4683 L216,463.4566 L606.5,463.4566 A2.5,2.5 0 0 1 609,465.9566 L609,537.4683 A2.5,2.5 0 0 1 606.5,539.9683 L32.5,539.9683 A2.5,2.5 0 0 1 30,537.4683 L30,443.4683 A2.5,2.5 0 0 1 32.5,440.9683 " fill="none" style="stroke:#000000;stroke-width:1.5;"/><line style="stroke:#000000;stroke-width:1.5;" x1="30" x2="216" y1="463.4566" y2="463.4566"/><text fill="#000000" font-family="sans-serif" font-size="14" font-weight="bold" lengthAdjust="spacing" textLength="173" x="34" y="456.5034">Imnplementation (PF1e)</text></g><!--class PenType--><g id="elem_PenType"><rect codeLine="6" fill="#F1F1F1" height="80.9766" id="PenType" rx="2.5" ry="2.5" style="stroke:#181818;stroke-width:0.5;" width="143" x="672.5" y="459.4883"/><ellipse cx="711.35" cy="475.4883" fill="#B4A7E5" rx="11" ry="11" style="stroke:#181818;stroke-width:1.0;"/><path d="M707.7777,471.7534 L707.7777,469.5952 L715.1571,469.5952 L715.1571,471.7534 L712.6918,471.7534 L712.6918,479.8301 L715.1571,479.8301 L715.1571,481.9883 L707.7777,481.9883 L707.7777,479.8301 L710.2431,479.8301 L710.2431,471.7534 Z " fill="#000000"/><text fill="#000000" font-family="sans-serif" font-size="14" font-style="italic" lengthAdjust="spacing" textLength="58" x="730.65" y="480.7793">PenType</text><line style="stroke:#181818;stroke-width:0.5;" x1="673.5" x2="814.5" y1="491.4883" y2="491.4883"/><line style="stroke:#181818;stroke-width:0.5;" x1="673.5" x2="814.5" y1="499.4883" y2="499.4883"/><polygon fill="#4177AF" points="683.5,509.2324,679.5,515.2324,687.5,515.2324" style="stroke:#1963A0;stroke-width:1.0;"/><text fill="#000000" font-family="sans-serif" font-size="14" lengthAdjust="spacing" textLength="117" x="692.5" y="517.0234">rotate(): PenType</text><polygon fill="#4177AF" points="683.5,525.7207,679.5,531.7207,687.5,531.7207" style="stroke:#1963A0;stroke-width:1.0;"/><text fill="#000000" font-family="sans-serif" font-size="14" lengthAdjust="spacing" textLength="110" x="692.5" y="533.5117">scale(): PenType</text></g><!--class Color--><g id="elem_Color"><rect codeLine="10" fill="#F1F1F1" height="80.9766" id="Color" rx="2.5" ry="2.5" style="stroke:#181818;stroke-width:0.5;" width="123" x="672.5" y="610.9683"/><ellipse cx="711.35" cy="626.9683" fill="#A9DCDF" rx="11" ry="11" style="stroke:#181818;stroke-width:1.0;"/><path d="M711.2133,622.3164 L710.0595,627.3882 L712.3754,627.3882 Z M709.7191,620.0752 L712.7157,620.0752 L716.0609,632.4683 L713.6122,632.4683 L712.8485,629.4053 L709.5697,629.4053 L708.8227,632.4683 L706.3739,632.4683 Z " fill="#000000"/><text fill="#000000" font-family="sans-serif" font-size="14" font-style="italic" lengthAdjust="spacing" textLength="38" x="730.65" y="632.2593">Color</text><line style="stroke:#181818;stroke-width:0.5;" x1="673.5" x2="794.5" y1="642.9683" y2="642.9683"/><line style="stroke:#181818;stroke-width:0.5;" x1="673.5" x2="794.5" y1="650.9683" y2="650.9683"/><polygon fill="#4177AF" points="683.5,660.7124,679.5,666.7124,687.5,666.7124" style="stroke:#1963A0;stroke-width:1.0;"/><text fill="#000000" font-family="sans-serif" font-size="14" lengthAdjust="spacing" textLength="97" x="692.5" y="668.5034">rotate(): Color</text><polygon fill="#4177AF" points="683.5,677.2007,679.5,683.2007,687.5,683.2007" style="stroke:#1963A0;stroke-width:1.0;"/><text fill="#000000" font-family="sans-serif" font-size="14" lengthAdjust="spacing" textLength="90" x="692.5" y="684.9917">scale(): Color</text></g><!--class Texture--><g id="elem_Texture"><rect codeLine="14" fill="#F1F1F1" height="80.9766" id="Texture" rx="2.5" ry="2.5" style="stroke:#181818;stroke-width:0.5;" width="139" x="830.5" y="610.9683"/><ellipse cx="869.35" cy="626.9683" fill="#A9DCDF" rx="11" ry="11" style="stroke:#181818;stroke-width:1.0;"/><path d="M869.2133,622.3164 L868.0595,627.3882 L870.3754,627.3882 Z M867.7191,620.0752 L870.7157,620.0752 L874.0609,632.4683 L871.6122,632.4683 L870.8485,629.4053 L867.5697,629.4053 L866.8227,632.4683 L864.3739,632.4683 Z " fill="#000000"/><text fill="#000000" font-family="sans-serif" font-size="14" font-style="italic" lengthAdjust="spacing" textLength="54" x="888.65" y="632.2593">Texture</text><line style="stroke:#181818;stroke-width:0.5;" x1="831.5" x2="968.5" y1="642.9683" y2="642.9683"/><line style="stroke:#181818;stroke-width:0.5;" x1="831.5" x2="968.5" y1="650.9683" y2="650.9683"/><polygon fill="#4177AF" points="841.5,660.7124,837.5,666.7124,845.5,666.7124" style="stroke:#1963A0;stroke-width:1.0;"/><text fill="#000000" font-family="sans-serif" font-size="14" lengthAdjust="spacing" textLength="113" x="850.5" y="668.5034">rotate(): Texture</text><polygon fill="#4177AF" points="841.5,677.2007,837.5,683.2007,845.5,683.2007" style="stroke:#1963A0;stroke-width:1.0;"/><text fill="#000000" font-family="sans-serif" font-size="14" lengthAdjust="spacing" textLength="106" x="850.5" y="684.9917">scale(): Texture</text></g><!--class DrawingTool--><g id="elem_DrawingTool"><rect codeLine="21" fill="#F1F1F1" height="179.9063" id="DrawingTool" rx="2.5" ry="2.5" style="stroke:#181818;stroke-width:0.5;" width="223" x="319.5" y="178.4883"/><ellipse cx="382.75" cy="194.4883" fill="#ADD1B2" rx="11" ry="11" style="stroke:#181818;stroke-width:1.0;"/><path d="M385.2231,200.6313 Q384.6421,200.9302 384.0029,201.0796 Q383.3638,201.229 382.6582,201.229 Q380.1514,201.229 378.8315,199.5771 Q377.5117,197.9253 377.5117,194.8042 Q377.5117,191.6748 378.8315,190.0229 Q380.1514,188.3711 382.6582,188.3711 Q383.3638,188.3711 384.0112,188.5205 Q384.6587,188.6699 385.2231,188.9688 L385.2231,191.6914 Q384.5923,191.1104 383.9988,190.8406 Q383.4053,190.5708 382.7744,190.5708 Q381.4297,190.5708 380.7449,191.6375 Q380.0601,192.7041 380.0601,194.8042 Q380.0601,196.896 380.7449,197.9626 Q381.4297,199.0293 382.7744,199.0293 Q383.4053,199.0293 383.9988,198.7595 Q384.5923,198.4897 385.2231,197.9087 Z " fill="#000000"/><text fill="#000000" font-family="sans-serif" font-size="14" lengthAdjust="spacing" textLength="88" x="403.25" y="199.7793">DrawingTool</text><line style="stroke:#181818;stroke-width:0.5;" x1="320.5" x2="541.5" y1="210.4883" y2="210.4883"/><ellipse cx="330.5" cy="224.2324" fill="#84BE84" rx="3" ry="3" style="stroke:#038048;stroke-width:1.0;"/><text fill="#000000" font-family="sans-serif" font-size="14" lengthAdjust="spacing" textLength="78" x="339.5" y="228.0234">start(): void</text><polygon fill="#FFFF44" points="330.5,256.209,334.5,260.209,330.5,264.209,326.5,260.209" style="stroke:#B38D22;stroke-width:1.0;"/><text fill="#000000" font-family="sans-serif" font-size="14" lengthAdjust="spacing" textLength="173" x="339.5" y="265">showFillPicker(): PenType</text><polygon fill="#FFFF44" points="330.5,272.6973,334.5,276.6973,330.5,280.6973,326.5,276.6973" style="stroke:#B38D22;stroke-width:1.0;"/><text fill="#000000" font-family="sans-serif" font-size="14" lengthAdjust="spacing" textLength="197" x="339.5" y="281.4883">showStrokePicker(): PenType</text><polygon fill="#FFFF44" points="330.5,289.1855,334.5,293.1855,330.5,297.1855,326.5,293.1855" style="stroke:#B38D22;stroke-width:1.0;"/><text fill="#000000" font-family="sans-serif" font-size="14" lengthAdjust="spacing" textLength="162" x="339.5" y="297.9766">setFill(p: PenType): void</text><polygon fill="#FFFF44" points="330.5,305.6738,334.5,309.6738,330.5,313.6738,326.5,309.6738" style="stroke:#B38D22;stroke-width:1.0;"/><text fill="#000000" font-family="sans-serif" font-size="14" lengthAdjust="spacing" textLength="186" x="339.5" y="314.4648">setStroke(p: PenType): void</text><line style="stroke:#181818;stroke-width:1.0;stroke-dasharray:1.0,2.0;" x1="320.5" x2="348.5" y1="243.2207" y2="243.2207"/><text fill="#000000" font-family="sans-serif" font-size="14" lengthAdjust="spacing" textLength="165" x="348.5" y="248.0117">Palette-related Methods</text><line style="stroke:#181818;stroke-width:1.0;stroke-dasharray:1.0,2.0;" x1="513.5" x2="541.5" y1="243.2207" y2="243.2207"/><polygon fill="#FFFF44" points="330.5,342.6504,334.5,346.6504,330.5,350.6504,326.5,346.6504" style="stroke:#B38D22;stroke-width:1.0;"/><text fill="#000000" font-family="sans-serif" font-size="14" lengthAdjust="spacing" textLength="176" x="339.5" y="351.4414">getCurrentPen(): PenType</text><line style="stroke:#181818;stroke-width:1.0;stroke-dasharray:1.0,2.0;" x1="320.5" x2="345" y1="329.6621" y2="329.6621"/><text fill="#000000" font-family="sans-serif" font-size="14" lengthAdjust="spacing" textLength="172" x="345" y="334.4531">Texture Scaling/Rotating</text><line style="stroke:#181818;stroke-width:1.0;stroke-dasharray:1.0,2.0;" x1="517" x2="541.5" y1="329.6621" y2="329.6621"/></g><path d="M22,227.3583 L22,298.6005 A0,0 0 0 0 22,298.6005 L276,298.6005 A0,0 0 0 0 276,298.6005 L276,266.9794 L323.5,346.1504 L276,258.9794 L276,237.3583 L266,227.3583 L22,227.3583 A0,0 0 0 0 22,227.3583 " fill="#FEFFDD" style="stroke:#181818;stroke-width:0.5;"/><path d="M266,227.3583 L266,237.3583 L276,237.3583 L266,227.3583 " fill="#FEFFDD" style="stroke:#181818;stroke-width:0.5;"/><text fill="#000000" font-family="sans-serif" font-size="13" lengthAdjust="spacing" textLength="116" x="28" y="244.9266">rotating or scaling</text><text fill="#000000" font-family="monospace" font-size="13" lengthAdjust="spacing" textLength="56" x="148" y="244.6029">Texture</text><text fill="#000000" font-family="sans-serif" font-size="13" lengthAdjust="spacing" textLength="57" x="204" y="244.9266">s is done</text><text fill="#000000" font-family="sans-serif" font-size="13" lengthAdjust="spacing" textLength="103" x="28" y="260.2372">by retrieving the</text><text fill="#000000" font-family="monospace" font-size="13" lengthAdjust="spacing" textLength="56" x="135" y="259.9135">PenType</text><text fill="#000000" font-family="sans-serif" font-size="13" lengthAdjust="spacing" textLength="23" x="195" y="260.2372">and</text><text fill="#000000" font-family="sans-serif" font-size="13" lengthAdjust="spacing" textLength="193" x="28" y="275.5477">calling the associated method;</text><text fill="#000000" font-family="sans-serif" font-size="13" lengthAdjust="spacing" textLength="32" x="28" y="290.8583">non-</text><text fill="#000000" font-family="monospace" font-size="13" lengthAdjust="spacing" textLength="56" x="60" y="290.5346">Texture</text><text fill="#000000" font-family="sans-serif" font-size="13" lengthAdjust="spacing" textLength="123" x="116" y="290.8583">s ignore those calls</text><!--class CircleTool--><g id="elem_CircleTool"><rect codeLine="42" fill="#F1F1F1" height="48" id="CircleTool" rx="2.5" ry="2.5" style="stroke:#181818;stroke-width:0.5;" width="102" x="46" y="475.9683"/><ellipse cx="61" cy="491.9683" fill="#ADD1B2" rx="11" ry="11" style="stroke:#181818;stroke-width:1.0;"/><path d="M63.4731,498.1113 Q62.8921,498.4102 62.2529,498.5596 Q61.6138,498.709 60.9082,498.709 Q58.4014,498.709 57.0815,497.0571 Q55.7617,495.4053 55.7617,492.2842 Q55.7617,489.1548 57.0815,487.5029 Q58.4014,485.8511 60.9082,485.8511 Q61.6138,485.8511 62.2612,486.0005 Q62.9087,486.1499 63.4731,486.4488 L63.4731,489.1714 Q62.8423,488.5904 62.2488,488.3206 Q61.6553,488.0508 61.0244,488.0508 Q59.6797,488.0508 58.9949,489.1175 Q58.3101,490.1841 58.3101,492.2842 Q58.3101,494.376 58.9949,495.4426 Q59.6797,496.5093 61.0244,496.5093 Q61.6553,496.5093 62.2488,496.2395 Q62.8423,495.9697 63.4731,495.3887 Z " fill="#000000"/><text fill="#000000" font-family="sans-serif" font-size="14" lengthAdjust="spacing" textLength="70" x="75" y="497.2593">CircleTool</text><line style="stroke:#181818;stroke-width:0.5;" x1="47" x2="147" y1="507.9683" y2="507.9683"/><line style="stroke:#181818;stroke-width:0.5;" x1="47" x2="147" y1="515.9683" y2="515.9683"/></g><!--class PolygonTool--><g id="elem_PolygonTool"><rect codeLine="45" fill="#F1F1F1" height="48" id="PolygonTool" rx="2.5" ry="2.5" style="stroke:#181818;stroke-width:0.5;" width="118" x="183" y="475.9683"/><ellipse cx="198" cy="491.9683" fill="#ADD1B2" rx="11" ry="11" style="stroke:#181818;stroke-width:1.0;"/><path d="M200.4731,498.1113 Q199.8921,498.4102 199.2529,498.5596 Q198.6138,498.709 197.9082,498.709 Q195.4014,498.709 194.0815,497.0571 Q192.7617,495.4053 192.7617,492.2842 Q192.7617,489.1548 194.0815,487.5029 Q195.4014,485.8511 197.9082,485.8511 Q198.6138,485.8511 199.2612,486.0005 Q199.9087,486.1499 200.4731,486.4488 L200.4731,489.1714 Q199.8423,488.5904 199.2488,488.3206 Q198.6553,488.0508 198.0244,488.0508 Q196.6797,488.0508 195.9949,489.1175 Q195.3101,490.1841 195.3101,492.2842 Q195.3101,494.376 195.9949,495.4426 Q196.6797,496.5093 198.0244,496.5093 Q198.6553,496.5093 199.2488,496.2395 Q199.8423,495.9697 200.4731,495.3887 Z " fill="#000000"/><text fill="#000000" font-family="sans-serif" font-size="14" lengthAdjust="spacing" textLength="86" x="212" y="497.2593">PolygonTool</text><line style="stroke:#181818;stroke-width:0.5;" x1="184" x2="300" y1="507.9683" y2="507.9683"/><line style="stroke:#181818;stroke-width:0.5;" x1="184" x2="300" y1="515.9683" y2="515.9683"/></g><!--class RectangleTool--><g id="elem_RectangleTool"><rect codeLine="48" fill="#F1F1F1" height="48" id="RectangleTool" rx="2.5" ry="2.5" style="stroke:#181818;stroke-width:0.5;" width="130" x="336" y="475.9683"/><ellipse cx="351" cy="491.9683" fill="#ADD1B2" rx="11" ry="11" style="stroke:#181818;stroke-width:1.0;"/><path d="M353.4731,498.1113 Q352.8921,498.4102 352.2529,498.5596 Q351.6138,498.709 350.9082,498.709 Q348.4014,498.709 347.0815,497.0571 Q345.7617,495.4053 345.7617,492.2842 Q345.7617,489.1548 347.0815,487.5029 Q348.4014,485.8511 350.9082,485.8511 Q351.6138,485.8511 352.2612,486.0005 Q352.9087,486.1499 353.4731,486.4488 L353.4731,489.1714 Q352.8423,488.5904 352.2488,488.3206 Q351.6553,488.0508 351.0244,488.0508 Q349.6797,488.0508 348.9949,489.1175 Q348.3101,490.1841 348.3101,492.2842 Q348.3101,494.376 348.9949,495.4426 Q349.6797,496.5093 351.0244,496.5093 Q351.6553,496.5093 352.2488,496.2395 Q352.8423,495.9697 353.4731,495.3887 Z " fill="#000000"/><text fill="#000000" font-family="sans-serif" font-size="14" lengthAdjust="spacing" textLength="98" x="365" y="497.2593">RectangleTool</text><line style="stroke:#181818;stroke-width:0.5;" x1="337" x2="465" y1="507.9683" y2="507.9683"/><line style="stroke:#181818;stroke-width:0.5;" x1="337" x2="465" y1="515.9683" y2="515.9683"/></g><!--class LineTool--><g id="elem_LineTool"><rect codeLine="51" fill="#F1F1F1" height="48" id="LineTool" rx="2.5" ry="2.5" style="stroke:#181818;stroke-width:0.5;" width="91" x="501.5" y="475.9683"/><ellipse cx="516.5" cy="491.9683" fill="#ADD1B2" rx="11" ry="11" style="stroke:#181818;stroke-width:1.0;"/><path d="M518.9731,498.1113 Q518.3921,498.4102 517.7529,498.5596 Q517.1138,498.709 516.4082,498.709 Q513.9014,498.709 512.5815,497.0571 Q511.2617,495.4053 511.2617,492.2842 Q511.2617,489.1548 512.5815,487.5029 Q513.9014,485.8511 516.4082,485.8511 Q517.1138,485.8511 517.7612,486.0005 Q518.4087,486.1499 518.9731,486.4488 L518.9731,489.1714 Q518.3423,488.5904 517.7488,488.3206 Q517.1553,488.0508 516.5244,488.0508 Q515.1797,488.0508 514.4949,489.1175 Q513.8101,490.1841 513.8101,492.2842 Q513.8101,494.376 514.4949,495.4426 Q515.1797,496.5093 516.5244,496.5093 Q517.1553,496.5093 517.7488,496.2395 Q518.3423,495.9697 518.9731,495.3887 Z " fill="#000000"/><text fill="#000000" font-family="sans-serif" font-size="14" lengthAdjust="spacing" textLength="59" x="530.5" y="497.2593">LineTool</text><line style="stroke:#181818;stroke-width:0.5;" x1="502.5" x2="591.5" y1="507.9683" y2="507.9683"/><line style="stroke:#181818;stroke-width:0.5;" x1="502.5" x2="591.5" y1="515.9683" y2="515.9683"/></g><!--class ToolPlugin--><g id="elem_ToolPlugin"><rect codeLine="3" fill="#F1F1F1" height="48" id="ToolPlugin" rx="2.5" ry="2.5" style="stroke:#181818;stroke-width:0.5;" width="106" x="378" y="44.4883"/><ellipse cx="393" cy="60.4883" fill="#B4A7E5" rx="11" ry="11" style="stroke:#181818;stroke-width:1.0;"/><path d="M389.4277,56.7534 L389.4277,54.5952 L396.8071,54.5952 L396.8071,56.7534 L394.3418,56.7534 L394.3418,64.8301 L396.8071,64.8301 L396.8071,66.9883 L389.4277,66.9883 L389.4277,64.8301 L391.8931,64.8301 L391.8931,56.7534 Z " fill="#000000"/><text fill="#000000" font-family="sans-serif" font-size="14" font-style="italic" lengthAdjust="spacing" textLength="74" x="407" y="65.7793">ToolPlugin</text><line style="stroke:#181818;stroke-width:0.5;" x1="379" x2="483" y1="76.4883" y2="76.4883"/><line style="stroke:#181818;stroke-width:0.5;" x1="379" x2="483" y1="84.4883" y2="84.4883"/></g><!--reverse link PenType to Color--><g id="link_PenType_Color"><path d="M740.146,558.598 C738.696,580.228 738.11,588.9583 736.67,610.6083 " fill="none" id="PenType-backto-Color" style="stroke:#181818;stroke-width:1.0;stroke-dasharray:7.0,7.0;"/><polygon fill="none" points="741.35,540.6383,734.1595,558.1967,746.1326,558.9993,741.35,540.6383" style="stroke:#181818;stroke-width:1.0;"/></g><!--reverse link PenType to Texture--><g id="link_PenType_Texture"><path d="M798.3929,553.0956 C820.9529,574.7256 835.81,588.9583 858.41,610.6083 " fill="none" id="PenType-backto-Texture" style="stroke:#181818;stroke-width:1.0;stroke-dasharray:7.0,7.0;"/><polygon fill="none" points="785.4,540.6383,794.2405,557.4265,802.5453,548.7646,785.4,540.6383" style="stroke:#181818;stroke-width:1.0;"/></g><!--reverse link ToolPlugin to DrawingTool--><g id="link_ToolPlugin_DrawingTool"><path d="M431,110.9183 C431,131.3483 431,144.3783 431,174.6083 " fill="none" id="ToolPlugin-backto-DrawingTool" style="stroke:#181818;stroke-width:1.0;stroke-dasharray:7.0,7.0;"/><polygon fill="none" points="431,92.9183,425,110.9183,437,110.9183,431,92.9183" style="stroke:#181818;stroke-width:1.0;"/></g><!--link DrawingTool to PenType--><g id="link_DrawingTool_PenType"><path codeLine="39" d="M544,257.9883 C647.3,257.9883 707.43,390.7283 731.57,459.1783 " fill="none" id="DrawingTool-PenType" style="stroke:#181818;stroke-width:1.0;"/><text fill="#000000" font-family="sans-serif" font-size="13" lengthAdjust="spacing" textLength="29" x="711" y="405.0566">uses</text></g><!--reverse link DrawingTool to CircleTool--><g id="link_DrawingTool_CircleTool"><path d="M296.0118,360.6589 C290.1418,364.1089 299.8,358.3283 294,361.4883 C239.26,391.2783 214.91,379.1483 165,416.4883 C143.15,432.8283 123.97,457.5983 111.6,475.7283 " fill="none" id="DrawingTool-backto-CircleTool" style="stroke:#181818;stroke-width:1.0;stroke-dasharray:7.0,7.0;"/><polygon fill="none" points="311.53,351.5383,292.9716,355.4861,299.052,365.8316,311.53,351.5383" style="stroke:#181818;stroke-width:1.0;"/></g><!--reverse link DrawingTool to PolygonTool--><g id="link_DrawingTool_PolygonTool"><path d="M343.7884,375.1122 C309.4784,416.8422 283.19,448.8483 261.1,475.7283 " fill="none" id="DrawingTool-backto-PolygonTool" style="stroke:#181818;stroke-width:1.0;stroke-dasharray:7.0,7.0;"/><polygon fill="none" points="355.22,361.2083,339.1537,371.3016,348.423,378.9227,355.22,361.2083" style="stroke:#181818;stroke-width:1.0;"/></g><!--reverse link DrawingTool to RectangleTool--><g id="link_DrawingTool_RectangleTool"><path d="M416.6432,379.0573 C411.2032,420.7873 407.54,448.8483 404.03,475.7283 " fill="none" id="DrawingTool-backto-RectangleTool" style="stroke:#181818;stroke-width:1.0;stroke-dasharray:7.0,7.0;"/><polygon fill="none" points="418.97,361.2083,410.6935,378.2816,422.5928,379.8329,418.97,361.2083" style="stroke:#181818;stroke-width:1.0;"/></g><!--reverse link DrawingTool to LineTool--><g id="link_DrawingTool_LineTool"><path d="M485.6199,377.2778 C506.6799,419.0078 521.72,448.8483 535.28,475.7283 " fill="none" id="DrawingTool-backto-LineTool" style="stroke:#181818;stroke-width:1.0;stroke-dasharray:7.0,7.0;"/><polygon fill="none" points="477.51,361.2083,480.2633,379.9811,490.9764,374.5745,477.51,361.2083" style="stroke:#181818;stroke-width:1.0;"/></g><!--SRC=[fLF1Rjim3BtxAmZjacAmXbwpOuS21Jh0QBCFK6p64QA8WSIq2uhisoVBKcodGT2YFjW6-VGU-KYnPeCW5aHcgHoKyCkfLsrRKHJQChgLgX6wR6NshRP5iLFrHhK8VrWR3sy5X6T0LcWNXnscUFVySyIASNOppyaXvMjbtcMEyQsMdfsg6MgZl8SxCkH0RtS6jsZPNnUAw0ioG_oYo0B_yjxXXsKI_eBGE7CiZeDhoTt4rykcM6VoM5eEhe_altjMZZkD5zBDAInb5QIPiNHeGdaD_4PUK-EbF66- -JMztcjZAbrlq5sQI8GyiwCDNWCXTpIptIbtNau7wMckWAJCXZy7tu83FvuwQyFFkEWM-MxlNB0aqBpVbVYnn0W6Lmoq6jivdqzE9rANL21ibE-LGOXKYn0Uj8U6R6vuUG27x3I-T41UXziYKWr2WBAveS1aCYACbMeTvx2DS_YPG9PiETLgBGK70iPZfF0HYRQ9NVNzJLgQJX7A4cIyYpBlwXps7dr_ycplv4FUh-00sL0dY8UjdSHcrVqjteZHpgKhg5rjy7nBC_5uYOUJQJu3IKNcq9Bz8iiJrgni- -Lg7hNzD4M-qly1]--></g></svg>