<?xml version="1.0" encoding="us-ascii" standalone="no"?><svg xmlns="http://www.w3.org/2000/svg" xmlns:xlink="http://www.w3.org/1999/xlink" contentStyleType="text/css" height="355px" preserveAspectRatio="none" style="width:622px;height:355px;background:#FFFFFF;" version="1.1" viewBox="0 0 622 355" width="622px" zoomAndPan="magnify"><defs/><g><text fill="#000000" font-family="sans-serif" font-size="14" font-weight="bold" lengthAdjust="spacing" textLength="143" x="232.5" y="23.5352">Toolbar - Template</text><!--cluster Template--><g id="cluster_Template"><path d="M8.5,117.4883 L77.5,117.4883 A3.75,3.75 0 0 1 80,119.9883 L87,139.9766 L612.5,139.9766 A2.5,2.5 0 0 1 615,142.4766 L615,345.9883 A2.5,2.5 0 0 1 612.5,348.4883 L8.5,348.4883 A2.5,2.5 0 0 1 6,345.9883 L6,119.9883 A2.5,2.5 0 0 1 8.5,117.4883 " fill="none" style="stroke:#000000;stroke-width:1.5;"/><line style="stroke:#000000;stroke-width:1.5;" x1="6" x2="87" y1="139.9766" y2="139.9766"/><text fill="#000000" font-family="sans-serif" font-size="14" font-weight="bold" lengthAdjust="spacing" textLength="68" x="10" y="133.0234">Template</text></g><!--cluster Implementation--><g id="cluster_Implementation"><path d="M32.5,225.4883 L217.5,225.4883 A3.75,3.75 0 0 1 220,227.9883 L227,247.9766 L588.5,247.9766 A2.5,2.5 0 0 1 591,250.4766 L591,321.9883 A2.5,2.5 0 0 1 588.5,324.4883 L32.5,324.4883 A2.5,2.5 0 0 1 30,321.9883 L30,227.9883 A2.5,2.5 0 0 1 32.5,225.4883 " fill="none" style="stroke:#000000;stroke-width:1.5;"/><line style="stroke:#000000;stroke-width:1.5;" x1="30" x2="227" y1="247.9766" y2="247.9766"/><text fill="#000000" font-family="sans-serif" font-size="14" font-weight="bold" lengthAdjust="spacing" textLength="184" x="34" y="241.0234">Implementation (D&amp;D 5e)</text></g><!--class TemplateTool--><g id="elem_TemplateTool"><rect codeLine="6" fill="#F1F1F1" height="48" id="TemplateTool" rx="2.5" ry="2.5" style="stroke:#181818;stroke-width:0.5;" width="127" x="249.5" y="152.4883"/><ellipse cx="264.5" cy="168.4883" fill="#ADD1B2" rx="11" ry="11" style="stroke:#181818;stroke-width:1.0;"/><path d="M266.9731,174.6313 Q266.3921,174.9302 265.7529,175.0796 Q265.1138,175.229 264.4082,175.229 Q261.9014,175.229 260.5815,173.5771 Q259.2617,171.9253 259.2617,168.8042 Q259.2617,165.6748 260.5815,164.0229 Q261.9014,162.3711 264.4082,162.3711 Q265.1138,162.3711 265.7612,162.5205 Q266.4087,162.6699 266.9731,162.9688 L266.9731,165.6914 Q266.3423,165.1104 265.7488,164.8406 Q265.1553,164.5708 264.5244,164.5708 Q263.1797,164.5708 262.4949,165.6375 Q261.8101,166.7041 261.8101,168.8042 Q261.8101,170.896 262.4949,171.9626 Q263.1797,173.0293 264.5244,173.0293 Q265.1553,173.0293 265.7488,172.7595 Q266.3423,172.4897 266.9731,171.9087 Z " fill="#000000"/><text fill="#000000" font-family="sans-serif" font-size="14" lengthAdjust="spacing" textLength="95" x="278.5" y="173.7793">TemplateTool</text><line style="stroke:#181818;stroke-width:0.5;" x1="250.5" x2="375.5" y1="184.4883" y2="184.4883"/><line style="stroke:#181818;stroke-width:0.5;" x1="250.5" x2="375.5" y1="192.4883" y2="192.4883"/></g><!--class ConeTool--><g id="elem_ConeTool"><rect codeLine="10" fill="#F1F1F1" height="48" id="ConeTool" rx="2.5" ry="2.5" style="stroke:#181818;stroke-width:0.5;" width="99" x="475.5" y="260.4883"/><ellipse cx="490.5" cy="276.4883" fill="#ADD1B2" rx="11" ry="11" style="stroke:#181818;stroke-width:1.0;"/><path d="M492.9731,282.6313 Q492.3921,282.9302 491.7529,283.0796 Q491.1138,283.229 490.4082,283.229 Q487.9014,283.229 486.5815,281.5771 Q485.2617,279.9253 485.2617,276.8042 Q485.2617,273.6748 486.5815,272.0229 Q487.9014,270.3711 490.4082,270.3711 Q491.1138,270.3711 491.7612,270.5205 Q492.4087,270.6699 492.9731,270.9688 L492.9731,273.6914 Q492.3423,273.1104 491.7488,272.8406 Q491.1553,272.5708 490.5244,272.5708 Q489.1797,272.5708 488.4949,273.6375 Q487.8101,274.7041 487.8101,276.8042 Q487.8101,278.896 488.4949,279.9626 Q489.1797,281.0293 490.5244,281.0293 Q491.1553,281.0293 491.7488,280.7595 Q492.3423,280.4897 492.9731,279.9087 Z " fill="#000000"/><text fill="#000000" font-family="sans-serif" font-size="14" lengthAdjust="spacing" textLength="67" x="504.5" y="281.7793">ConeTool</text><line style="stroke:#181818;stroke-width:0.5;" x1="476.5" x2="573.5" y1="292.4883" y2="292.4883"/><line style="stroke:#181818;stroke-width:0.5;" x1="476.5" x2="573.5" y1="300.4883" y2="300.4883"/></g><!--class CircleTool--><g id="elem_CircleTool"><rect codeLine="13" fill="#F1F1F1" height="48" id="CircleTool" rx="2.5" ry="2.5" style="stroke:#181818;stroke-width:0.5;" width="102" x="338" y="260.4883"/><ellipse cx="353" cy="276.4883" fill="#ADD1B2" rx="11" ry="11" style="stroke:#181818;stroke-width:1.0;"/><path d="M355.4731,282.6313 Q354.8921,282.9302 354.2529,283.0796 Q353.6138,283.229 352.9082,283.229 Q350.4014,283.229 349.0815,281.5771 Q347.7617,279.9253 347.7617,276.8042 Q347.7617,273.6748 349.0815,272.0229 Q350.4014,270.3711 352.9082,270.3711 Q353.6138,270.3711 354.2612,270.5205 Q354.9087,270.6699 355.4731,270.9688 L355.4731,273.6914 Q354.8423,273.1104 354.2488,272.8406 Q353.6553,272.5708 353.0244,272.5708 Q351.6797,272.5708 350.9949,273.6375 Q350.3101,274.7041 350.3101,276.8042 Q350.3101,278.896 350.9949,279.9626 Q351.6797,281.0293 353.0244,281.0293 Q353.6553,281.0293 354.2488,280.7595 Q354.8423,280.4897 355.4731,279.9087 Z " fill="#000000"/><text fill="#000000" font-family="sans-serif" font-size="14" lengthAdjust="spacing" textLength="70" x="367" y="281.7793">CircleTool</text><line style="stroke:#181818;stroke-width:0.5;" x1="339" x2="439" y1="292.4883" y2="292.4883"/><line style="stroke:#181818;stroke-width:0.5;" x1="339" x2="439" y1="300.4883" y2="300.4883"/></g><!--class RectangleTool--><g id="elem_RectangleTool"><rect codeLine="16" fill="#F1F1F1" height="48" id="RectangleTool" rx="2.5" ry="2.5" style="stroke:#181818;stroke-width:0.5;" width="130" x="173" y="260.4883"/><ellipse cx="188" cy="276.4883" fill="#ADD1B2" rx="11" ry="11" style="stroke:#181818;stroke-width:1.0;"/><path d="M190.4731,282.6313 Q189.8921,282.9302 189.2529,283.0796 Q188.6138,283.229 187.9082,283.229 Q185.4014,283.229 184.0815,281.5771 Q182.7617,279.9253 182.7617,276.8042 Q182.7617,273.6748 184.0815,272.0229 Q185.4014,270.3711 187.9082,270.3711 Q188.6138,270.3711 189.2612,270.5205 Q189.9087,270.6699 190.4731,270.9688 L190.4731,273.6914 Q189.8423,273.1104 189.2488,272.8406 Q188.6553,272.5708 188.0244,272.5708 Q186.6797,272.5708 185.9949,273.6375 Q185.3101,274.7041 185.3101,276.8042 Q185.3101,278.896 185.9949,279.9626 Q186.6797,281.0293 188.0244,281.0293 Q188.6553,281.0293 189.2488,280.7595 Q189.8423,280.4897 190.4731,279.9087 Z " fill="#000000"/><text fill="#000000" font-family="sans-serif" font-size="14" lengthAdjust="spacing" textLength="98" x="202" y="281.7793">RectangleTool</text><line style="stroke:#181818;stroke-width:0.5;" x1="174" x2="302" y1="292.4883" y2="292.4883"/><line style="stroke:#181818;stroke-width:0.5;" x1="174" x2="302" y1="300.4883" y2="300.4883"/></g><!--class LineTool--><g id="elem_LineTool"><rect codeLine="19" fill="#F1F1F1" height="48" id="LineTool" rx="2.5" ry="2.5" style="stroke:#181818;stroke-width:0.5;" width="91" x="46.5" y="260.4883"/><ellipse cx="61.5" cy="276.4883" fill="#ADD1B2" rx="11" ry="11" style="stroke:#181818;stroke-width:1.0;"/><path d="M63.9731,282.6313 Q63.3921,282.9302 62.7529,283.0796 Q62.1138,283.229 61.4082,283.229 Q58.9014,283.229 57.5815,281.5771 Q56.2617,279.9253 56.2617,276.8042 Q56.2617,273.6748 57.5815,272.0229 Q58.9014,270.3711 61.4082,270.3711 Q62.1138,270.3711 62.7612,270.5205 Q63.4087,270.6699 63.9731,270.9688 L63.9731,273.6914 Q63.3423,273.1104 62.7488,272.8406 Q62.1553,272.5708 61.5244,272.5708 Q60.1797,272.5708 59.4949,273.6375 Q58.8101,274.7041 58.8101,276.8042 Q58.8101,278.896 59.4949,279.9626 Q60.1797,281.0293 61.5244,281.0293 Q62.1553,281.0293 62.7488,280.7595 Q63.3423,280.4897 63.9731,279.9087 Z " fill="#000000"/><text fill="#000000" font-family="sans-serif" font-size="14" lengthAdjust="spacing" textLength="59" x="75.5" y="281.7793">LineTool</text><line style="stroke:#181818;stroke-width:0.5;" x1="47.5" x2="136.5" y1="292.4883" y2="292.4883"/><line style="stroke:#181818;stroke-width:0.5;" x1="47.5" x2="136.5" y1="300.4883" y2="300.4883"/></g><!--class ToolPlugin--><g id="elem_ToolPlugin"><rect codeLine="3" fill="#F1F1F1" height="48" id="ToolPlugin" rx="2.5" ry="2.5" style="stroke:#181818;stroke-width:0.5;" width="106" x="260" y="44.4883"/><ellipse cx="275" cy="60.4883" fill="#B4A7E5" rx="11" ry="11" style="stroke:#181818;stroke-width:1.0;"/><path d="M271.4277,56.7534 L271.4277,54.5952 L278.8071,54.5952 L278.8071,56.7534 L276.3418,56.7534 L276.3418,64.8301 L278.8071,64.8301 L278.8071,66.9883 L271.4277,66.9883 L271.4277,64.8301 L273.8931,64.8301 L273.8931,56.7534 Z " fill="#000000"/><text fill="#000000" font-family="sans-serif" font-size="14" font-style="italic" lengthAdjust="spacing" textLength="74" x="289" y="65.7793">ToolPlugin</text><line style="stroke:#181818;stroke-width:0.5;" x1="261" x2="365" y1="76.4883" y2="76.4883"/><line style="stroke:#181818;stroke-width:0.5;" x1="261" x2="365" y1="84.4883" y2="84.4883"/></g><!--reverse link ToolPlugin to TemplateTool--><g id="link_ToolPlugin_TemplateTool"><path d="M313,110.7483 C313,128.4283 313,134.6183 313,152.2783 " fill="none" id="ToolPlugin-backto-TemplateTool" style="stroke:#181818;stroke-width:1.0;stroke-dasharray:7.0,7.0;"/><polygon fill="none" points="313,92.7483,307,110.7483,319,110.7483,313,92.7483" style="stroke:#181818;stroke-width:1.0;"/></g><!--reverse link TemplateTool to ConeTool--><g id="link_TemplateTool_ConeTool"><path d="M394.3221,191.7826 C420.6721,197.8426 433.24,203.1883 458,217.4883 C476.95,228.4283 494.42,245.9983 506.76,260.2583 " fill="none" id="TemplateTool-backto-ConeTool" style="stroke:#181818;stroke-width:1.0;stroke-dasharray:7.0,7.0;"/><polygon fill="none" points="376.78,187.7483,392.9773,197.63,395.6668,185.9353,376.78,187.7483" style="stroke:#181818;stroke-width:1.0;"/></g><!--reverse link TemplateTool to CircleTool--><g id="link_TemplateTool_CircleTool"><path d="M340.165,215.3793 C352.835,233.0593 359.7,242.6183 372.36,260.2783 " fill="none" id="TemplateTool-backto-CircleTool" style="stroke:#181818;stroke-width:1.0;stroke-dasharray:7.0,7.0;"/><polygon fill="none" points="329.68,200.7483,335.288,218.8742,345.042,211.8843,329.68,200.7483" style="stroke:#181818;stroke-width:1.0;"/></g><!--reverse link TemplateTool to RectangleTool--><g id="link_TemplateTool_RectangleTool"><path d="M286.1486,215.4459 C273.6486,233.1259 266.92,242.6183 254.42,260.2783 " fill="none" id="TemplateTool-backto-RectangleTool" style="stroke:#181818;stroke-width:1.0;stroke-dasharray:7.0,7.0;"/><polygon fill="none" points="296.54,200.7483,281.2494,211.9821,291.0478,218.9097,296.54,200.7483" style="stroke:#181818;stroke-width:1.0;"/></g><!--reverse link TemplateTool to LineTool--><g id="link_TemplateTool_LineTool"><path d="M231.4458,188.6552 C201.3658,194.3652 183.59,200.7983 155,217.4883 C136.67,228.1883 120.27,245.7683 108.8,260.0983 " fill="none" id="TemplateTool-backto-LineTool" style="stroke:#181818;stroke-width:1.0;stroke-dasharray:7.0,7.0;"/><polygon fill="none" points="249.13,185.2983,230.3268,182.7605,232.5648,194.55,249.13,185.2983" style="stroke:#181818;stroke-width:1.0;"/></g><!--SRC=[hO-n3i9028PtdeBSO7ImcqzW5nC7O_e2UC66UBrhUdGoVNTRFLkjcye01FW_G4KTeob2S2TgS8q5LxKZPGCWNhavasKSsWVNbk81Qh8NAdaSn2jWRzPHZ6Dn4A3qELViDM8s4T9y1_SmfsMxfuXKWaUAQ6QbPRx8SSChaqZJzctm7vj7yDjfapBTyGAHnhhVCKUsIhxy0salttpry1tS0000]--></g></svg>